<!DOCTYPE svg PUBLIC "-//W3C//DTD SVG 20010904//EN" "http://www.w3.org/TR/2001/REC-SVG-20010904/DTD/svg10.dtd">
<svg version="1.0" xmlns="http://www.w3.org/2000/svg" width="750px" height="585px" viewBox="0 0 7500 5850" preserveAspectRatio="xMidYMid meet">
<g id="layer101" fill="#1a1a1b" stroke="none">
<path d="M3538 4255 c-4 -4 -41 -11 -83 -16 -42 -5 -129 -23 -193 -40 -426 -108 -813 -363 -1072 -704 -38 -49 -76 -98 -84 -107 -9 -10 -16 -21 -16 -24 0 -3 -8 -18 -19 -32 -10 -15 -31 -49 -46 -77 -254 -452 -322 -983 -190 -1482 69 -262 206 -531 376 -738 301 -368 686 -599 1166 -702 119 -25 145 -27 368 -28 226 0 248 2 380 29 428 87 814 304 1083 605 110 124 122 139 168 206 178 258 292 545 339 857 20 128 20 453 0 568 -34 209 -89 396 -157 540 -44 93 -146 271 -163 282 -6 5 -6 8 0 8 6 0 4 4 -2 8 -7 4 -38 41 -68 82 -46 62 -179 205 -227 245 -232 194 -440 318 -682 406 -93 34 -290 85 -386 101 -74 12 -482 22 -492 13z m415 -160 c128 -17 282 -54 392 -94 96 -34 221 -88 250 -107 11 -7 48 -28 82 -46 75 -40 293 -199 287 -209 -2 -4 4 -10 15 -14 10 -3 57 -46 104 -94 243 -255 388 -533 459 -881 29 -145 31 -169 32 -365 0 -208 -9 -279 -59 -485 -7 -32 -55 -172 -62 -183 -4 -7 -8 -18 -9 -25 -8 -53 -187 -361 -247 -427 -11 -11 -32 -38 -48 -60 -30 -41 -178 -188 -239 -238 -527 -427 -1224 -532 -1850 -279 -100 41 -150 66 -240 120 -64 38 -205 135 -220 152 -3 3 -35 32 -72 64 -37 32 -65 62 -62 67 3 5 0 8 -6 7 -14 -3 -190 200 -190 219 0 6 -4 13 -8 15 -23 9 -127 185 -179 303 -151 339 -196 719 -127 1075 33 167 29 154 70 272 90 258 241 494 457 710 21 21 43 38 49 38 6 0 8 3 5 6 -3 4 22 29 56 56 65 52 249 178 260 178 4 0 7 -13 7 -29 0 -16 7 -34 15 -41 8 -7 15 -25 15 -41 0 -16 2 -29 5 -29 10 0 123 125 119 132 -3 4 -12 8 -21 8 -13 0 -14 -2 -2 -17 13 -16 12 -17 -2 -5 -10 7 -15 21 -12 32 3 11 0 20 -6 20 -6 0 -11 3 -11 8 0 8 84 63 102 66 7 1 18 4 23 7 22 13 176 60 276 84 189 44 402 56 592 30z"/>
<path d="M3819 3858 c-11 -15 -28 -18 -111 -18 -54 0 -100 4 -103 10 -18 28 -266 -3 -369 -46 -34 -14 -79 -32 -101 -39 -76 -24 -150 -62 -174 -89 -14 -14 -31 -26 -39 -26 -10 0 -13 -7 -9 -21 7 -25 -7 -40 -83 -96 -68 -49 -184 -163 -247 -240 -26 -32 -51 -61 -57 -65 -7 -5 -7 -8 -1 -8 6 0 3 -6 -6 -13 -9 -7 -28 -34 -44 -62 -15 -27 -36 -62 -46 -77 -11 -14 -19 -31 -19 -37 0 -6 -4 -11 -10 -11 -5 0 -10 -9 -10 -19 0 -11 -4 -22 -9 -25 -5 -3 -16 -29 -25 -58 -9 -29 -21 -62 -25 -73 -25 -60 -31 -78 -31 -95 0 -11 -4 -20 -9 -20 -4 0 -11 -17 -14 -37 -4 -21 -11 -58 -17 -83 -6 -25 -16 -99 -21 -165 -9 -111 -27 -178 -53 -196 -5 -4 -5 -12 -2 -18 4 -6 3 -11 -2 -11 -13 0 -44 -68 -37 -80 3 -6 1 -10 -4 -10 -6 0 -11 -7 -11 -15 0 -8 -4 -15 -8 -15 -5 0 -16 -16 -25 -36 -10 -19 -21 -33 -26 -30 -5 3 -12 -8 -15 -24 -3 -17 -9 -43 -12 -60 -3 -16 -3 -41 0 -55 6 -24 9 -25 84 -25 58 0 86 5 115 20 29 16 37 17 37 6 0 -8 6 -16 13 -19 9 -3 8 -15 -6 -53 -9 -27 -17 -56 -17 -65 0 -24 33 -49 63 -49 20 0 27 -5 27 -20 0 -19 53 -126 88 -179 10 -14 27 -43 37 -63 11 -21 23 -38 26 -38 4 0 21 -21 37 -47 41 -67 227 -250 311 -308 39 -27 71 -51 71 -55 0 -3 51 -31 113 -60 61 -30 115 -58 118 -62 5 -7 118 -45 209 -69 206 -57 556 -57 760 -1 94 27 204 63 209 70 3 4 49 28 101 53 90 44 180 104 279 187 72 59 201 194 228 237 14 22 38 56 53 75 15 19 44 69 66 110 21 41 45 80 52 88 7 7 10 17 7 22 -6 9 18 20 45 20 10 0 22 5 25 11 12 18 17 69 7 69 -15 0 -21 50 -10 82 l10 28 37 -22 c20 -12 39 -26 42 -31 4 -5 36 -5 75 0 69 8 69 8 78 45 8 31 5 45 -20 92 -16 31 -39 67 -51 81 -13 13 -23 31 -23 40 0 8 -4 15 -10 15 -5 0 -10 7 -10 15 0 8 -3 15 -8 15 -4 0 -17 21 -29 48 -18 41 -22 71 -26 227 -6 199 -12 254 -33 293 -8 15 -14 32 -14 38 0 24 -73 229 -83 236 -7 4 -8 8 -4 8 4 0 -5 21 -20 48 -14 26 -38 68 -52 93 -82 146 -269 355 -393 440 -32 22 -58 43 -58 47 0 4 -19 16 -41 27 -46 22 -57 38 -39 60 8 10 11 35 8 70 -3 39 -1 59 9 66 15 13 17 45 3 54 -6 4 -7 -1 -3 -11 4 -12 3 -15 -5 -10 -7 4 -12 1 -12 -8 0 -24 -20 -29 -41 -10 -27 24 -24 4 6 -40 48 -70 49 -70 -157 6 -16 6 -28 14 -28 19 0 13 34 11 48 -3 9 -9 15 -9 24 0 7 7 8 12 4 12 -5 0 -2 8 5 17 10 11 10 14 2 9 -8 -4 -13 -2 -13 5 0 8 -4 8 -15 -1 -12 -10 -15 -9 -15 6 0 11 -3 15 -8 8 -13 -20 -41 -24 -51 -7 -7 14 -10 13 -15 -5 -9 -27 -31 -28 -141 -6 -44 8 -116 17 -160 19 -44 2 -80 5 -80 5 0 1 -12 3 -26 4 -17 2 -32 -4 -40 -16z"/>
</g>
<g id="layer102" fill="#5c471a" stroke="none">
<path d="M3538 4255 c-4 -4 -41 -11 -83 -16 -42 -5 -129 -23 -193 -40 -426 -108 -813 -363 -1072 -704 -38 -49 -76 -98 -84 -107 -9 -10 -16 -21 -16 -24 0 -3 -8 -18 -19 -32 -10 -15 -31 -49 -46 -77 -254 -452 -322 -983 -190 -1482 69 -262 206 -531 376 -738 301 -368 686 -599 1166 -702 119 -25 145 -27 368 -28 226 0 248 2 380 29 168 34 313 81 455 148 297 139 490 291 730 574 74 87 178 258 243 400 127 279 177 514 177 836 0 257 -24 402 -106 646 -48 146 -143 339 -163 334 -7 -1 -10 2 -6 8 6 10 -41 99 -60 112 -6 5 -6 8 0 8 6 0 4 4 -2 8 -7 4 -38 41 -68 82 -46 62 -179 205 -227 245 -232 194 -440 318 -682 406 -93 34 -290 85 -386 101 -74 12 -482 22 -492 13z m415 -160 c128 -17 282 -54 392 -94 96 -34 221 -88 250 -107 11 -7 48 -28 82 -46 75 -40 293 -199 287 -209 -2 -4 4 -10 15 -14 10 -3 57 -46 104 -94 243 -255 388 -533 459 -881 29 -145 31 -169 32 -365 0 -208 -9 -279 -59 -485 -7 -32 -55 -172 -62 -183 -4 -7 -8 -18 -9 -25 -7 -47 -170 -333 -231 -407 -65 -78 -84 -106 -78 -115 4 -6 2 -9 -4 -8 -6 2 -50 -35 -98 -82 -94 -90 -127 -118 -211 -180 -61 -45 -216 -138 -284 -171 -26 -12 -45 -25 -43 -28 1 -3 -7 -7 -18 -8 -12 0 -75 -19 -140 -42 -416 -143 -862 -130 -1277 37 -100 41 -150 66 -240 120 -64 38 -205 135 -220 152 -3 3 -35 32 -72 64 -37 32 -65 62 -62 67 3 5 0 8 -6 7 -14 -3 -190 200 -190 219 0 6 -4 13 -8 15 -23 9 -127 185 -179 303 -151 339 -196 719 -127 1075 33 170 29 157 75 283 23 61 42 122 43 134 0 11 4 19 8 17 4 -3 24 28 43 67 49 101 176 287 254 372 99 107 141 147 153 147 6 0 8 3 5 6 -8 9 96 91 213 169 84 56 287 165 315 169 5 1 15 4 20 7 22 13 176 60 275 83 192 46 400 57 593 31z"/>
<path d="M3810 3850 c0 -6 -58 -10 -153 -10 -105 0 -157 -4 -165 -12 -6 -6 -20 -13 -29 -14 -105 -14 -172 -33 -235 -65 -10 -5 -23 -9 -30 -9 -7 0 -26 -11 -43 -24 l-30 -25 60 5 c33 3 99 12 146 20 47 7 127 16 176 20 l91 6 5 -223 c9 -357 4 -549 -14 -549 -5 0 -9 -20 -9 -44 0 -25 -5 -48 -11 -52 -6 -4 -8 -20 -4 -40 3 -21 2 -34 -5 -34 -5 0 -10 -13 -10 -30 0 -16 -5 -30 -11 -30 -5 0 -8 -4 -5 -9 9 -14 -46 -110 -66 -117 -9 -3 -20 -14 -23 -25 -4 -10 -15 -19 -26 -19 -11 0 -22 -7 -25 -15 -4 -8 -14 -15 -24 -15 -11 0 -22 -5 -25 -10 -9 -14 -78 -44 -162 -69 -40 -12 -75 -21 -78 -21 -3 0 -20 -9 -38 -19 -18 -10 -49 -22 -68 -26 -34 -7 -69 -35 -69 -55 0 -14 -42 -104 -52 -111 -4 -3 -13 -51 -20 -108 -9 -74 -18 -111 -34 -134 -19 -29 -26 -32 -75 -32 l-54 0 -8 -55 c-6 -47 -14 -60 -51 -95 -39 -35 -49 -40 -89 -38 -36 1 -49 -3 -68 -23 -20 -21 -32 -24 -103 -26 -45 0 -66 -3 -48 -5 23 -3 32 -9 32 -23 0 -19 53 -127 88 -179 10 -14 27 -43 37 -63 11 -21 23 -38 26 -38 4 0 21 -21 37 -47 41 -67 227 -250 311 -308 39 -27 71 -51 71 -55 0 -3 51 -31 113 -60 61 -30 115 -58 118 -62 5 -7 118 -45 209 -69 206 -57 556 -57 760 -1 94 27 204 63 209 70 3 4 49 28 101 53 90 44 180 104 279 187 72 59 201 194 228 237 14 22 38 56 53 75 15 19 44 69 66 110 21 41 45 80 52 88 7 7 10 18 7 22 -3 5 9 14 27 19 28 8 19 9 -52 10 -86 1 -115 10 -115 33 0 8 -21 15 -59 19 -53 6 -63 11 -93 45 -18 21 -35 55 -39 74 -9 57 -16 63 -71 64 -61 1 -90 23 -98 75 -4 20 -10 43 -14 51 -5 9 -12 45 -16 80 -7 65 -39 150 -56 150 -5 0 -9 9 -9 20 0 32 -40 66 -95 80 -63 16 -105 33 -105 42 0 5 -7 8 -15 8 -8 0 -38 11 -67 24 -29 13 -81 36 -115 51 -34 15 -70 36 -79 46 -9 11 -26 19 -37 19 -11 0 -17 3 -14 7 8 8 -22 43 -37 43 -13 0 -56 91 -56 119 0 11 -4 23 -10 26 -5 3 -10 19 -10 36 0 16 -4 29 -9 29 -5 0 -12 47 -16 105 -4 58 -11 108 -16 111 -5 3 -9 89 -10 192 0 145 -3 181 -11 162 -6 -14 -12 -29 -12 -34 -2 -18 -24 -17 -29 1 -4 17 -5 16 -13 -2 -11 -23 -75 -30 -66 -7 3 9 13 11 30 7 21 -5 24 -3 19 14 -6 24 7 36 51 46 l32 7 -6 165 -7 166 139 -8 c154 -8 260 -24 360 -54 75 -24 88 -25 78 -10 -17 29 -243 116 -324 126 -30 3 -64 12 -75 19 -12 9 -49 14 -103 14 -53 0 -81 4 -77 10 3 6 1 10 -4 10 -6 0 -11 -4 -11 -10z m-131 -480 c9 -13 12 -21 6 -18 -16 9 -57 -10 -49 -23 5 -8 3 -9 -6 -4 -10 6 -8 12 9 26 13 11 17 20 11 24 -6 4 -17 2 -25 -5 -13 -10 -14 -5 -6 28 3 13 47 -8 60 -28z"/>
<path d="M4502 3612 c-6 -14 -12 -36 -12 -48 0 -13 -4 -26 -10 -29 -5 -3 -10 -19 -10 -34 0 -15 -3 -31 -6 -34 -4 -4 -8 -25 -11 -49 -3 -36 -1 -40 9 -25 12 16 14 16 26 -3 10 -17 10 -20 -6 -20 -26 0 -42 -20 -42 -52 0 -15 -4 -28 -9 -28 -5 0 -9 -30 -10 -67 0 -38 -5 -69 -11 -71 -13 -5 -13 -109 0 -117 6 -3 10 -17 10 -31 0 -13 5 -24 11 -24 5 0 8 -4 4 -9 -3 -6 4 -15 16 -22 13 -6 33 -24 47 -40 16 -19 33 -29 52 -29 22 0 29 -5 32 -22 2 -17 20 -31 67 -54 35 -17 67 -38 72 -46 4 -8 26 -20 49 -28 22 -7 40 -16 40 -20 0 -5 19 -17 43 -29 55 -27 72 -39 116 -79 20 -17 44 -35 53 -38 9 -3 22 -22 29 -42 7 -20 19 -44 28 -52 18 -17 35 -43 54 -80 6 -14 24 -36 38 -50 14 -14 28 -33 32 -43 3 -9 11 -17 17 -17 5 0 10 -7 10 -15 0 -8 4 -15 9 -15 5 0 12 -8 15 -17 7 -26 -1 323 -9 375 -4 24 -13 56 -21 70 -8 15 -14 32 -14 38 0 24 -73 229 -83 236 -7 4 -8 8 -4 8 4 0 -5 21 -20 48 -14 26 -38 68 -52 93 -69 122 -241 329 -274 329 -10 0 -16 4 -13 9 8 12 -38 56 -106 102 -31 21 -58 42 -60 46 -1 5 -21 18 -43 30 l-40 22 -13 -27z m131 -194 c8 7 18 7 27 2 13 -8 12 -10 -2 -10 -10 0 -18 -3 -18 -7 0 -5 -20 -8 -45 -9 -31 -1 -45 3 -45 12 0 7 6 11 14 8 8 -3 17 0 21 6 5 8 11 8 21 -1 10 -8 18 -8 27 -1z m117 -6 c0 -8 -52 -42 -64 -42 -15 0 -4 17 22 32 30 19 42 22 42 10z m-200 -52 c-19 -13 -30 -13 -30 0 0 6 10 10 23 10 18 0 19 -2 7 -10z"/>
<path d="M2905 3594 c-11 -11 -45 -39 -75 -61 -68 -49 -184 -163 -247 -240 -26 -32 -51 -61 -57 -65 -7 -5 -7 -8 -1 -8 6 0 3 -6 -6 -13 -9 -7 -28 -34 -44 -62 -15 -27 -36 -62 -46 -77 -11 -14 -19 -31 -19 -37 0 -6 -4 -11 -10 -11 -5 0 -10 -9 -10 -19 0 -11 -4 -22 -9 -25 -5 -3 -16 -29 -25 -58 -9 -29 -21 -62 -25 -73 -25 -60 -31 -78 -31 -95 0 -11 -4 -20 -10 -20 -5 0 -10 -11 -10 -24 0 -12 -4 -36 -9 -52 -19 -63 -30 -133 -36 -228 -6 -80 -5 -97 6 -93 8 2 13 10 12 16 -2 6 6 16 16 23 11 6 17 18 13 26 -3 9 -1 13 5 9 6 -4 16 0 23 8 7 8 9 15 4 15 -4 0 -3 5 3 11 6 6 9 17 7 24 -3 8 2 12 13 12 13 -2 22 11 34 47 17 50 65 115 85 116 7 0 14 7 17 15 4 8 23 22 44 33 57 28 85 45 113 68 14 12 36 25 50 29 14 4 39 18 57 31 17 13 36 24 40 24 5 0 18 9 30 19 11 10 34 26 51 35 18 9 32 21 32 26 0 6 8 10 18 10 11 0 43 23 72 51 50 48 52 52 46 90 -4 24 -2 39 4 39 14 0 13 57 -1 62 -6 2 -13 33 -16 68 -3 36 -9 69 -14 75 -5 5 -9 30 -9 56 0 26 -4 51 -10 54 -5 3 -10 20 -10 37 0 17 -7 36 -17 43 -10 7 -19 32 -22 61 l-6 49 -20 -21z"/>
<path d="M2040 1938 c0 -39 8 -68 19 -68 9 0 1 83 -10 95 -5 5 -9 -5 -9 -27z"/>
<path d="M5416 1913 c-9 -10 -7 -93 3 -93 10 0 21 34 21 67 0 23 -13 37 -24 26z"/>
</g>
<g id="layer103" fill="#996d19" stroke="none">
<path d="M3810 3850 c0 -6 -56 -10 -148 -10 -98 0 -152 -4 -160 -12 -6 -6 -30 -15 -54 -19 -89 -16 -125 -26 -158 -42 -18 -9 -39 -17 -46 -17 -7 0 -16 -5 -20 -12 -4 -6 -3 -8 2 -5 5 3 34 8 64 11 30 3 84 10 120 16 36 5 93 10 128 10 l62 0 1 -207 c1 -115 4 -198 6 -185 6 28 53 31 70 3 6 -10 25 -21 42 -23 26 -4 30 -1 33 20 3 27 17 37 60 46 l27 6 -6 177 -6 176 174 -6 c109 -4 168 -3 159 3 -8 5 -25 10 -37 10 -12 0 -24 4 -27 9 -3 5 -23 11 -43 14 -21 3 -56 10 -78 16 -22 6 -66 11 -98 11 -36 0 -56 4 -52 10 3 6 1 10 -4 10 -6 0 -11 -4 -11 -10z"/>
<path d="M4502 3612 c-6 -14 -12 -36 -12 -48 0 -13 -4 -26 -10 -29 -5 -3 -10 -19 -10 -34 0 -15 -3 -31 -6 -34 -4 -4 -8 -23 -10 -43 -3 -33 -2 -35 10 -19 13 18 14 18 20 -3 8 -24 32 -34 84 -34 23 0 31 -3 21 -8 -28 -16 -94 -16 -84 0 8 13 5 12 -34 -1 -25 -9 -31 -16 -31 -40 0 -16 -4 -29 -9 -29 -5 0 -9 -30 -10 -67 0 -38 -5 -69 -11 -71 -13 -5 -13 -109 0 -117 6 -3 10 -17 10 -31 0 -13 5 -24 11 -24 5 0 8 -4 4 -9 -3 -6 4 -15 16 -22 13 -6 33 -24 47 -40 16 -19 33 -29 52 -29 22 0 29 -5 32 -22 2 -17 20 -31 67 -54 35 -17 67 -38 72 -46 4 -8 26 -20 49 -28 22 -7 40 -16 40 -20 0 -5 19 -17 43 -29 55 -27 72 -39 116 -79 20 -17 44 -35 53 -38 9 -3 22 -22 29 -42 7 -20 19 -44 28 -52 18 -17 35 -43 54 -80 6 -14 24 -36 38 -50 14 -14 28 -33 32 -43 3 -9 11 -17 17 -17 5 0 10 -7 10 -15 0 -8 4 -15 9 -15 5 0 12 -8 15 -17 7 -26 -1 323 -9 375 -4 24 -13 56 -21 70 -8 15 -14 32 -14 38 0 24 -73 229 -83 236 -7 4 -8 8 -4 8 4 0 -5 21 -20 48 -14 26 -38 68 -52 93 -44 77 -142 206 -216 284 -45 46 -85 57 -85 23 0 -12 -3 -19 -6 -15 -4 3 -13 0 -21 -8 -15 -16 -53 -21 -53 -7 0 4 23 21 51 38 l50 30 -28 28 c-15 16 -53 46 -85 67 -31 21 -58 42 -60 46 -1 5 -21 18 -43 30 l-40 22 -13 -27z m166 -200 c2 -7 -2 -12 -10 -13 -7 0 -37 -3 -65 -5 -46 -3 -53 -1 -53 14 0 16 8 18 62 17 38 -1 63 -6 66 -13z"/>
<path d="M2905 3594 c-11 -11 -45 -39 -75 -61 -68 -49 -184 -163 -247 -240 -26 -32 -51 -61 -57 -65 -7 -5 -7 -8 -1 -8 6 0 3 -6 -6 -13 -9 -7 -28 -34 -44 -62 -15 -27 -36 -62 -46 -77 -11 -14 -19 -31 -19 -37 0 -6 -4 -11 -10 -11 -5 0 -10 -9 -10 -19 0 -11 -4 -22 -9 -25 -5 -3 -16 -29 -25 -58 -9 -29 -21 -62 -25 -73 -25 -60 -31 -78 -31 -95 0 -11 -4 -20 -10 -20 -5 0 -10 -11 -10 -24 0 -12 -4 -36 -9 -52 -19 -63 -30 -133 -36 -228 -6 -80 -5 -97 6 -93 8 2 13 10 12 16 -2 6 6 16 16 23 11 6 17 18 13 26 -3 9 -1 13 5 9 6 -4 16 0 23 8 7 8 9 15 4 15 -4 0 -3 5 3 11 6 6 9 17 7 24 -3 8 2 12 13 12 13 -2 22 11 34 47 17 50 65 115 85 116 7 0 14 7 17 15 4 8 23 22 44 33 57 28 85 45 113 68 14 12 36 25 50 29 14 4 39 18 57 31 17 13 36 24 40 24 5 0 18 9 30 19 11 10 34 26 51 35 18 9 32 21 32 26 0 6 8 10 18 10 11 0 43 23 72 51 50 48 52 52 46 90 -4 24 -2 39 4 39 13 0 9 52 -4 61 -5 4 -11 35 -13 70 -3 35 -9 68 -14 74 -5 5 -9 30 -9 56 0 26 -4 51 -10 54 -5 3 -10 20 -10 37 0 17 -7 36 -17 43 -10 7 -19 32 -22 61 l-6 49 -20 -21z"/>
<path d="M3820 3366 c0 -21 -21 -31 -31 -15 -6 10 -9 8 -9 -8 0 -25 -10 -29 -27 -12 -12 12 -53 3 -53 -12 0 -5 -7 -9 -15 -9 -8 0 -15 5 -15 10 0 6 7 10 15 10 8 0 15 5 15 10 0 16 -50 12 -56 -5 -4 -8 -10 -12 -15 -9 -15 9 -10 20 14 32 16 8 17 11 6 11 -30 2 -37 -23 -39 -129 -3 -172 -11 -270 -21 -270 -5 0 -9 -20 -9 -44 0 -25 -5 -48 -11 -52 -6 -4 -8 -20 -4 -40 3 -21 2 -34 -5 -34 -5 0 -10 -13 -10 -30 0 -16 -5 -30 -11 -30 -5 0 -8 -4 -5 -9 9 -14 -46 -110 -66 -117 -9 -3 -20 -14 -23 -25 -4 -10 -15 -19 -26 -19 -11 0 -22 -7 -25 -15 -4 -8 -14 -15 -24 -15 -11 0 -22 -5 -25 -10 -9 -14 -78 -44 -162 -69 -40 -12 -75 -21 -78 -21 -3 0 -20 -9 -38 -19 -18 -10 -49 -22 -68 -26 -34 -7 -69 -35 -69 -55 0 -14 -42 -104 -52 -111 -4 -3 -13 -51 -20 -108 -9 -74 -18 -111 -34 -134 -19 -29 -26 -32 -75 -32 l-54 0 -8 -55 c-6 -47 -14 -60 -51 -95 -39 -35 -49 -40 -89 -38 -36 1 -49 -3 -68 -23 -20 -21 -32 -24 -103 -26 -45 0 -66 -3 -48 -5 23 -3 32 -9 32 -23 0 -19 53 -127 88 -179 10 -14 27 -43 37 -63 11 -21 23 -38 26 -38 4 0 21 -21 37 -47 41 -67 227 -250 311 -308 39 -27 71 -51 71 -55 0 -3 51 -31 113 -60 61 -30 115 -58 118 -62 5 -7 118 -45 209 -69 206 -57 556 -57 760 -1 94 27 204 63 209 70 3 4 49 28 101 53 90 44 180 104 279 187 72 59 201 194 228 237 14 22 38 56 53 75 15 19 44 69 66 110 21 41 45 80 52 88 7 7 10 18 7 23 -4 5 -1 9 4 9 6 0 11 5 11 10 0 6 -28 10 -62 10 -65 0 -93 10 -93 32 0 8 -21 15 -59 19 -53 6 -63 11 -93 45 -18 21 -35 55 -39 74 -9 57 -16 63 -71 64 -61 1 -90 23 -98 75 -4 20 -10 43 -14 51 -5 9 -12 45 -16 80 -7 65 -39 150 -56 150 -5 0 -9 9 -9 20 0 32 -40 66 -95 80 -63 16 -105 33 -105 42 0 5 -7 8 -15 8 -8 0 -38 11 -67 24 -29 13 -81 36 -115 51 -34 15 -70 36 -79 46 -9 11 -26 19 -37 19 -11 0 -17 3 -14 7 8 8 -22 43 -37 43 -13 0 -56 91 -56 119 0 11 -4 23 -10 26 -5 3 -10 19 -10 36 0 16 -4 29 -9 29 -5 0 -12 47 -16 105 -4 58 -11 108 -16 111 -5 3 -9 63 -9 134 0 93 -3 130 -12 133 -10 4 -10 6 0 6 14 1 17 71 2 71 -5 0 -10 -6 -10 -14z"/>
</g>
<g id="layer104" fill="#808435" stroke="none">
<path d="M3526 4253 c-15 -4 -16 -7 -5 -14 9 -6 -2 -7 -30 -3 -32 5 -42 4 -37 -4 4 -7 2 -12 -3 -12 -6 0 -11 5 -11 10 0 6 -10 8 -22 5 -151 -33 -207 -48 -204 -53 2 -4 -10 -7 -27 -8 -45 -1 -158 -44 -150 -57 4 -6 1 -7 -6 -2 -15 9 -93 -24 -85 -36 3 -5 -1 -6 -9 -3 -19 7 -140 -54 -132 -66 4 -6 -1 -7 -11 -3 -12 4 -15 3 -10 -5 4 -7 2 -10 -6 -7 -17 6 -124 -59 -121 -73 2 -6 -3 -9 -10 -7 -15 6 -110 -62 -103 -74 3 -4 -1 -8 -9 -8 -21 0 -124 -86 -122 -103 1 -8 -4 -15 -10 -16 -7 -1 -17 -2 -23 -3 -5 0 -10 -6 -10 -12 0 -5 6 -7 13 -3 6 4 -1 -7 -17 -24 -30 -33 -43 -41 -30 -21 4 7 1 10 -7 7 -8 -3 -14 -13 -14 -24 0 -10 -3 -17 -7 -14 -8 6 -78 -59 -78 -73 0 -4 5 -5 12 -1 7 4 8 3 4 -5 -4 -6 -11 -9 -16 -6 -11 7 -41 -35 -34 -47 3 -5 0 -7 -6 -6 -15 4 -82 -90 -74 -103 3 -5 -2 -6 -10 -3 -9 4 -16 1 -16 -6 0 -7 -8 -24 -19 -38 -53 -77 -124 -220 -117 -238 3 -8 1 -13 -5 -11 -17 3 -87 -185 -119 -318 -43 -178 -44 -185 -28 -185 10 0 10 -2 0 -8 -21 -14 -32 -117 -32 -302 0 -184 5 -224 24 -213 8 5 7 2 -1 -8 -19 -24 18 -212 78 -397 17 -50 35 -90 40 -87 5 4 6 -1 3 -9 -7 -19 93 -229 106 -221 6 4 7 -1 3 -11 -5 -13 -3 -15 7 -9 9 5 11 4 6 -4 -9 -14 41 -104 53 -96 5 2 8 -3 7 -13 0 -9 4 -16 10 -15 7 1 11 -5 10 -15 0 -9 5 -16 12 -14 8 1 11 -2 7 -8 -9 -15 44 -82 57 -74 7 5 8 2 4 -5 -9 -14 22 -53 35 -46 4 3 11 0 15 -6 4 -8 3 -9 -4 -5 -7 4 -12 3 -12 -1 0 -11 68 -78 78 -78 4 0 6 -4 4 -9 -5 -14 41 -57 56 -51 7 3 10 0 7 -6 -7 -11 12 -39 27 -39 5 0 6 6 2 13 -5 8 -3 8 9 -2 9 -7 15 -17 12 -21 -7 -11 40 -51 56 -48 8 2 13 -2 12 -9 -4 -16 69 -74 85 -68 7 3 11 1 8 -4 -8 -13 21 -34 35 -25 8 4 9 3 5 -4 -9 -14 39 -46 55 -36 7 4 9 3 6 -4 -9 -13 79 -65 95 -56 7 4 8 3 4 -4 -9 -14 130 -86 151 -78 9 4 11 2 7 -6 -5 -8 -2 -9 10 -5 9 4 15 3 12 -2 -8 -12 50 -35 65 -25 7 4 10 3 5 -4 -8 -13 209 -86 236 -79 10 3 16 2 13 -3 -5 -8 164 -42 274 -56 38 -4 52 -3 47 5 -4 6 -2 11 3 11 6 0 11 -5 11 -11 0 -21 357 -5 487 21 62 12 111 26 108 30 -3 5 3 6 14 3 27 -7 163 36 155 49 -4 7 -3 8 5 4 17 -11 69 8 219 80 90 43 131 67 126 75 -4 8 -3 9 4 5 15 -9 54 12 47 24 -3 6 0 7 8 4 17 -6 113 60 109 76 -1 6 2 9 8 5 13 -8 42 14 34 26 -3 5 1 6 9 4 13 -6 44 21 47 40 1 6 7 9 12 7 14 -4 59 38 53 49 -3 4 0 11 6 15 8 4 9 3 5 -4 -4 -7 -3 -12 2 -12 15 0 134 129 128 139 -3 5 1 14 9 21 8 7 15 9 15 4 0 -4 11 3 25 16 14 13 23 30 20 38 -2 7 -1 11 4 8 12 -8 44 31 36 43 -3 6 0 9 8 5 16 -6 31 22 20 38 -3 6 -1 8 5 4 14 -8 55 50 46 65 -4 7 -3 9 4 5 14 -8 66 79 56 95 -4 7 -3 9 4 6 13 -9 65 80 58 99 -4 10 -2 12 6 8 8 -5 9 -2 5 10 -4 9 -3 15 2 12 18 -12 106 215 147 379 42 172 54 281 54 492 0 202 -5 257 -21 231 -7 -10 -9 -9 -9 5 0 9 4 17 10 17 10 0 8 17 -21 160 -27 127 -111 376 -126 373 -8 -2 -10 4 -6 14 4 11 3 14 -5 9 -8 -4 -10 -2 -6 7 8 21 -44 119 -58 111 -7 -4 -8 -3 -4 4 9 15 -12 54 -24 47 -6 -4 -7 1 -3 11 4 11 2 15 -4 11 -6 -4 -10 1 -9 11 0 9 -5 16 -12 14 -8 -1 -11 2 -8 7 11 16 -16 62 -32 56 -12 -4 -13 -3 -2 10 12 15 4 21 -23 16 -5 -1 -6 3 -2 9 9 14 -14 42 -28 33 -6 -3 -7 -1 -3 6 10 15 -13 43 -27 34 -6 -3 -7 -1 -3 6 9 14 -15 45 -116 149 -45 46 -87 81 -94 78 -13 -5 -38 17 -28 26 9 10 -85 80 -97 72 -7 -4 -9 -3 -5 4 3 6 -9 22 -27 36 -37 28 -52 33 -41 14 4 -8 3 -10 -2 -5 -5 5 -9 14 -9 20 0 7 -9 11 -18 11 -10 -1 -16 0 -13 4 9 9 -57 53 -72 47 -8 -3 -10 0 -6 7 5 8 2 9 -10 5 -10 -4 -15 -3 -11 3 7 12 -32 33 -47 24 -7 -4 -8 -3 -4 5 9 14 -214 123 -256 125 -14 0 -24 4 -22 7 7 12 -158 61 -184 54 -14 -3 -21 -2 -18 4 3 5 -33 18 -81 30 -67 16 -89 18 -95 8 -6 -9 -8 -9 -8 2 0 10 -9 12 -35 8 -20 -3 -33 -2 -30 2 2 5 -5 11 -18 15 -26 7 -403 6 -431 -1z m162 -10 c-16 -2 -40 -2 -55 0 -16 2 -3 4 27 4 30 0 43 -2 28 -4z m175 0 c-13 -2 -35 -2 -50 0 -16 2 -5 4 22 4 28 0 40 -2 28 -4z m10 -137 c-4 -5 21 -7 58 -4 35 3 55 3 44 -2 -25 -9 93 -23 121 -14 14 4 15 3 5 -4 -10 -7 1 -13 38 -22 28 -7 58 -9 67 -6 10 4 13 2 8 -6 -5 -7 1 -9 19 -6 15 3 25 2 22 -1 -6 -10 124 -54 141 -47 8 3 13 2 10 -3 -8 -12 140 -75 155 -65 8 5 10 3 4 -6 -6 -10 -4 -12 8 -7 10 4 16 2 14 -4 -3 -14 64 -51 81 -44 7 3 10 1 7 -5 -7 -11 52 -43 66 -35 5 4 8 1 7 -7 -2 -7 5 -12 14 -12 10 1 16 -2 13 -6 -8 -12 134 -112 147 -104 6 4 8 3 5 -3 -9 -15 29 -47 45 -37 11 6 11 5 0 -8 -11 -14 -10 -17 6 -22 11 -4 49 -38 86 -76 37 -38 73 -69 79 -67 7 1 11 -4 9 -12 -4 -18 38 -62 51 -54 6 3 7 1 3 -6 -9 -14 41 -84 54 -76 4 2 7 -3 6 -13 0 -9 4 -16 10 -15 7 1 11 -5 10 -15 0 -9 4 -16 10 -15 7 1 11 -5 10 -15 0 -9 5 -16 12 -14 8 1 11 -2 7 -8 -9 -14 14 -52 27 -44 6 4 8 3 4 -4 -3 -6 14 -51 38 -101 25 -51 59 -132 77 -181 17 -49 35 -88 39 -85 4 2 5 -7 2 -22 -3 -18 -1 -24 6 -19 8 4 10 2 6 -7 -3 -8 6 -74 20 -146 14 -72 26 -151 26 -174 0 -24 3 -46 6 -49 3 -3 5 -61 5 -128 0 -67 -2 -125 -5 -128 -3 -3 -6 -24 -6 -46 0 -42 -44 -279 -55 -296 -3 -6 -1 -10 4 -10 6 0 11 -5 11 -11 0 -5 -4 -8 -9 -5 -12 8 -55 -129 -45 -145 4 -7 3 -10 -3 -6 -9 6 -27 -19 -23 -31 0 -1 -7 -16 -16 -33 -8 -17 -13 -37 -10 -45 3 -8 2 -13 -2 -10 -12 7 -64 -103 -56 -116 4 -7 2 -8 -4 -4 -6 4 -16 -4 -23 -16 -13 -25 -121 -190 -129 -198 -28 -26 -80 -101 -76 -108 3 -6 -2 -16 -11 -23 -12 -10 -14 -10 -9 -1 15 24 -2 11 -72 -60 -71 -70 -84 -87 -59 -72 9 6 8 3 -1 -8 -8 -9 -19 -15 -25 -12 -7 2 -29 -11 -49 -28 -20 -18 -48 -41 -63 -51 -14 -10 -23 -22 -20 -26 2 -5 -3 -8 -13 -7 -9 0 -16 -5 -14 -12 1 -8 -2 -11 -7 -8 -14 9 -162 -84 -155 -96 4 -6 2 -8 -4 -4 -13 8 -123 -44 -116 -56 3 -4 -3 -5 -12 -1 -13 5 -15 3 -9 -7 5 -9 4 -11 -4 -6 -14 9 -103 -23 -95 -35 3 -5 -1 -7 -8 -4 -19 7 -205 -51 -187 -58 7 -4 5 -5 -7 -2 -11 3 -56 -1 -100 -10 -261 -48 -427 -48 -688 0 -44 9 -89 13 -100 10 -12 -3 -15 -2 -7 1 17 8 -128 56 -152 50 -9 -2 -15 -1 -12 3 7 12 -132 64 -146 55 -8 -5 -9 -3 -4 6 6 10 4 12 -8 7 -10 -4 -16 -2 -14 6 1 7 -8 12 -20 11 -12 0 -19 4 -16 9 4 6 -1 8 -11 4 -11 -5 -15 -3 -10 5 5 8 2 9 -10 5 -11 -5 -15 -3 -10 5 5 8 2 9 -10 5 -10 -4 -15 -3 -11 3 7 12 -81 64 -95 55 -6 -4 -9 -1 -8 7 2 7 -5 12 -14 12 -10 -1 -16 2 -13 6 7 11 -54 52 -68 44 -6 -4 -9 -4 -5 1 9 9 -9 35 -24 35 -5 0 -6 -6 -2 -12 4 -8 3 -10 -2 -5 -5 5 -9 12 -9 16 0 4 -22 28 -50 54 -49 45 -74 60 -59 35 4 -7 -5 -2 -19 11 -15 13 -24 27 -22 32 3 4 1 10 -5 14 -6 4 -7 11 -4 17 4 6 2 8 -4 4 -6 -3 -13 -2 -17 4 -4 6 -11 8 -16 4 -5 -3 -8 0 -7 7 2 7 -4 13 -12 14 -8 1 -14 7 -12 14 4 18 -48 72 -61 64 -6 -4 -7 -1 -3 6 10 15 -23 53 -37 44 -6 -3 -7 -1 -3 6 9 14 -12 43 -25 35 -5 -3 -6 2 -2 11 3 10 2 20 -4 24 -5 3 -19 21 -32 39 -12 18 -27 30 -32 27 -5 -4 -6 2 -2 11 5 13 3 15 -7 9 -9 -5 -11 -4 -6 4 9 14 -42 104 -54 96 -6 -4 -7 1 -3 11 4 12 3 15 -5 10 -8 -5 -10 -1 -5 10 5 13 3 15 -7 9 -9 -6 -11 -4 -5 4 10 17 -35 112 -48 104 -6 -3 -7 -1 -3 6 10 16 -3 53 -16 45 -7 -4 -8 -2 -4 5 4 6 -6 55 -23 109 -41 131 -70 269 -77 375 -4 48 -10 87 -13 87 -8 0 -4 170 3 178 3 3 6 29 6 58 0 29 9 101 21 160 11 59 18 116 16 126 -3 10 -2 16 3 13 13 -8 19 22 7 35 -7 7 -7 10 -1 7 13 -7 68 158 58 175 -4 6 -3 8 4 4 13 -8 26 29 16 45 -4 7 -3 9 4 5 13 -8 26 29 16 45 -4 8 -3 9 4 5 13 -8 85 131 76 146 -3 4 -1 7 4 6 13 -4 144 191 136 204 -4 6 -3 8 3 5 14 -9 47 29 38 43 -3 6 -2 9 4 8 12 -3 111 91 111 106 0 5 -15 -3 -32 -19 -18 -17 -6 -2 27 33 57 59 73 74 60 52 -3 -5 -3 -10 2 -10 11 0 40 20 29 20 -5 0 3 9 18 21 14 11 23 25 20 31 -5 7 -2 8 5 4 15 -10 53 23 44 37 -3 6 -1 7 6 3 15 -9 73 32 65 46 -4 6 -2 8 4 4 12 -7 138 71 135 84 -2 5 5 6 14 3 12 -5 14 -3 8 7 -5 9 -4 11 3 6 16 -10 54 12 46 26 -5 7 -2 8 6 3 17 -10 151 55 143 69 -4 6 1 5 10 -3 16 -12 22 -8 18 12 -1 5 3 6 9 2 6 -4 45 5 88 19 42 14 109 33 147 41 39 9 80 23 92 31 26 16 45 19 23 3 -12 -9 -11 -9 5 -4 11 4 34 7 50 6 23 -1 27 1 15 9 -10 7 5 8 49 3 38 -3 62 -2 59 3 -4 5 50 9 127 9 77 0 131 -4 128 -9z m-1956 -1713 c-3 -10 -5 -2 -5 17 0 19 2 27 5 18 2 -10 2 -26 0 -35z m-130 -240 c-3 -10 -5 -2 -5 17 0 19 2 27 5 18 2 -10 2 -26 0 -35z"/>
<path d="M3810 3850 c0 -6 -40 -10 -97 -11 -125 -1 -210 -12 -226 -28 -10 -10 0 -12 49 -9 l62 3 4 -45 c3 -25 4 -126 3 -225 -1 -99 0 -170 3 -157 4 28 52 31 69 3 6 -10 25 -21 42 -23 26 -4 30 -1 33 20 3 27 17 37 62 47 23 5 27 10 22 28 -11 35 -20 280 -12 320 l7 37 92 0 c63 0 87 3 77 10 -8 5 -38 10 -66 10 -65 0 -115 10 -108 21 3 5 0 9 -5 9 -6 0 -11 -4 -11 -10z"/>
<path d="M4502 3612 c-6 -14 -12 -36 -12 -48 0 -13 -4 -26 -10 -29 -5 -3 -10 -19 -10 -35 0 -16 -5 -32 -10 -35 -14 -9 21 -67 37 -61 7 3 10 -1 7 -9 -6 -15 27 -28 69 -27 37 1 26 -14 -15 -21 -38 -5 -60 1 -52 14 7 11 4 11 -35 -2 -25 -9 -31 -16 -31 -40 0 -16 -4 -29 -9 -29 -5 0 -9 -30 -10 -67 0 -38 -5 -69 -11 -71 -13 -5 -13 -109 0 -117 6 -3 10 -17 10 -31 0 -13 5 -24 11 -24 5 0 8 -4 4 -9 -3 -6 4 -15 16 -22 13 -6 33 -24 47 -40 16 -19 33 -29 52 -29 22 0 29 -5 32 -22 2 -17 20 -31 67 -54 35 -17 67 -38 72 -46 4 -8 26 -20 49 -28 22 -7 40 -16 40 -20 0 -5 19 -17 43 -29 55 -27 72 -39 116 -79 20 -17 44 -35 53 -38 9 -3 22 -22 29 -42 7 -20 19 -44 28 -52 18 -17 35 -43 54 -80 6 -14 24 -36 38 -50 14 -14 28 -33 32 -43 3 -9 11 -17 17 -17 5 0 10 -7 10 -15 0 -8 4 -15 9 -15 5 0 12 -8 15 -17 7 -26 -1 323 -9 375 -4 24 -13 56 -21 70 -8 15 -14 32 -14 38 0 24 -73 229 -83 236 -7 4 -8 8 -4 8 4 0 -5 21 -20 48 -14 26 -38 68 -52 93 -44 78 -144 209 -216 283 -45 46 -85 58 -85 26 0 -20 -33 -40 -66 -40 -25 0 -15 15 31 42 25 15 45 32 45 37 0 14 -36 47 -102 92 -31 21 -58 42 -60 46 -1 5 -21 18 -43 30 l-40 22 -13 -27z m165 -192 c2 -22 -12 -27 -79 -29 -41 0 -48 2 -48 18 0 16 7 19 43 16 32 -1 78 6 82 14 1 1 1 -8 2 -19z"/>
<path d="M2905 3594 c-11 -11 -45 -39 -75 -61 -68 -49 -184 -163 -247 -240 -26 -32 -51 -61 -57 -65 -7 -5 -7 -8 -1 -8 6 0 3 -6 -6 -13 -9 -7 -28 -34 -44 -62 -15 -27 -36 -62 -46 -77 -11 -14 -19 -31 -19 -37 0 -6 -4 -11 -10 -11 -5 0 -10 -9 -10 -19 0 -11 -4 -22 -9 -25 -5 -3 -16 -29 -25 -58 -9 -29 -21 -62 -25 -73 -25 -60 -31 -78 -31 -95 0 -11 -4 -20 -10 -20 -5 0 -10 -11 -10 -24 0 -12 -4 -36 -9 -52 -19 -63 -30 -133 -36 -228 -6 -80 -5 -97 6 -93 8 2 13 10 12 16 -2 6 6 16 16 23 11 6 17 18 13 26 -3 9 -1 13 5 9 6 -4 16 0 23 8 7 8 9 15 4 15 -4 0 -3 5 3 11 6 6 9 17 7 24 -3 8 2 12 13 12 13 -2 22 11 34 47 17 50 65 115 85 116 7 0 14 7 17 15 4 8 23 22 44 33 57 28 85 45 113 68 14 12 36 25 50 29 14 4 39 18 57 31 17 13 36 24 40 24 5 0 18 9 30 19 11 10 34 26 51 35 18 9 32 21 32 26 0 6 8 10 18 10 11 0 43 23 72 51 50 48 52 52 46 89 -4 25 -2 40 5 42 9 3 8 18 -3 53 -9 28 -17 70 -17 95 -1 25 -6 49 -12 55 -5 5 -9 30 -9 56 0 26 -4 51 -10 54 -5 3 -10 20 -10 37 0 17 -7 36 -17 43 -10 7 -19 32 -22 61 l-6 49 -20 -21z"/>
<path d="M3820 3366 c0 -21 -21 -31 -31 -15 -6 10 -9 8 -9 -8 0 -26 0 -26 -34 -13 -19 7 -29 6 -40 -5 -17 -17 -36 -20 -36 -5 0 6 7 10 15 10 8 0 15 5 15 10 0 16 -50 12 -56 -5 -4 -8 -10 -12 -15 -9 -15 9 -10 20 14 32 16 8 17 11 6 11 -30 2 -37 -23 -39 -129 -3 -172 -11 -270 -21 -270 -5 0 -9 -20 -9 -44 0 -25 -5 -48 -11 -52 -6 -4 -8 -20 -4 -40 3 -21 2 -34 -5 -34 -5 0 -10 -13 -10 -30 0 -16 -5 -30 -11 -30 -5 0 -8 -4 -5 -9 9 -14 -46 -110 -66 -117 -9 -3 -20 -14 -23 -25 -4 -10 -15 -19 -26 -19 -11 0 -22 -7 -25 -15 -4 -8 -14 -15 -24 -15 -11 0 -22 -5 -25 -10 -9 -14 -78 -44 -162 -69 -40 -12 -75 -21 -78 -21 -3 0 -20 -9 -38 -19 -18 -10 -49 -22 -68 -26 -34 -7 -69 -35 -69 -55 0 -14 -42 -104 -52 -111 -4 -3 -13 -51 -20 -108 -9 -74 -18 -111 -34 -134 -19 -29 -26 -32 -75 -32 l-54 0 -8 -55 c-6 -47 -14 -60 -51 -95 -39 -35 -49 -40 -89 -38 -36 1 -49 -3 -68 -23 -20 -21 -32 -24 -103 -26 -45 0 -66 -3 -48 -5 23 -3 32 -9 32 -23 0 -19 53 -127 88 -179 10 -14 27 -43 37 -63 11 -21 23 -38 26 -38 4 0 21 -21 37 -47 41 -67 227 -250 311 -308 39 -27 71 -51 71 -55 0 -3 51 -31 113 -60 61 -30 115 -58 118 -62 5 -7 118 -45 209 -69 206 -57 556 -57 760 -1 94 27 204 63 209 70 3 4 49 28 101 53 90 44 180 104 279 187 72 59 201 194 228 237 14 22 38 56 53 75 15 19 44 69 66 110 21 41 45 80 52 88 7 7 10 18 7 23 -4 5 -1 9 4 9 6 0 11 5 11 10 0 6 -28 10 -62 10 -65 0 -93 10 -93 32 0 8 -21 15 -59 19 -53 6 -63 11 -93 45 -18 21 -35 55 -39 74 -9 57 -16 63 -71 64 -61 1 -90 23 -98 75 -4 20 -10 43 -14 51 -5 9 -12 45 -16 80 -7 65 -39 150 -56 150 -5 0 -9 9 -9 20 0 32 -40 66 -95 80 -63 16 -105 33 -105 42 0 5 -7 8 -15 8 -8 0 -38 11 -67 24 -29 13 -81 36 -115 51 -34 15 -70 36 -79 46 -9 11 -26 19 -37 19 -11 0 -17 3 -14 7 8 8 -22 43 -37 43 -13 0 -56 91 -56 119 0 11 -4 23 -10 26 -5 3 -10 19 -10 36 0 16 -4 29 -9 29 -5 0 -12 47 -16 105 -4 58 -11 108 -16 111 -5 3 -9 63 -9 134 0 93 -3 130 -12 133 -10 4 -10 6 0 6 14 1 17 71 2 71 -5 0 -10 -6 -10 -14z"/>
<path d="M2044 1927 c2 -26 6 -50 10 -54 9 -9 6 47 -5 77 -6 19 -8 14 -5 -23z"/>
<path d="M5418 1872 c-5 -48 -3 -60 8 -49 11 11 16 84 6 91 -6 3 -12 -13 -14 -42z"/>
</g>
<g id="layer105" fill="#ca6b12" stroke="none">
<path d="M3810 3853 c0 -10 -27 -13 -97 -14 -125 -1 -210 -12 -226 -28 -10 -10 0 -12 51 -9 l62 3 1 -35 c1 -19 2 -109 3 -200 l1 -165 32 -3 c20 -2 37 -11 43 -23 14 -26 70 -27 70 -1 0 24 19 42 46 42 34 0 42 19 33 80 -9 66 -11 256 -3 288 6 21 11 22 97 22 111 0 106 12 -10 21 -55 4 -89 12 -94 20 -6 10 -9 11 -9 2z"/>
<path d="M4502 3612 c-6 -14 -12 -36 -12 -48 0 -13 -4 -26 -10 -29 -5 -3 -10 -19 -10 -35 0 -16 -5 -32 -10 -35 -15 -9 5 -42 30 -50 11 -4 17 -11 14 -17 -10 -15 16 -28 59 -28 45 0 41 -16 -5 -23 -37 -5 -61 1 -53 13 6 10 -36 0 -52 -13 -7 -5 -13 -20 -13 -33 0 -13 -4 -24 -9 -24 -5 0 -9 -30 -10 -67 0 -38 -5 -69 -11 -71 -13 -5 -13 -109 0 -117 6 -3 10 -17 10 -31 0 -13 5 -24 11 -24 5 0 8 -4 4 -9 -3 -6 4 -15 16 -22 13 -6 33 -24 47 -40 16 -19 33 -29 52 -29 22 0 29 -5 32 -22 2 -17 20 -31 67 -54 35 -17 67 -38 72 -46 4 -8 26 -20 49 -28 22 -7 40 -16 40 -20 0 -5 19 -17 43 -29 55 -27 72 -39 116 -79 20 -17 44 -35 53 -38 9 -3 22 -22 29 -42 7 -20 19 -44 28 -52 18 -17 35 -43 54 -80 6 -14 24 -36 38 -50 14 -14 28 -33 32 -43 3 -9 11 -17 17 -17 5 0 10 -7 10 -15 0 -8 4 -15 9 -15 5 0 12 -8 15 -17 7 -26 -1 323 -9 375 -4 24 -13 56 -21 70 -8 15 -14 32 -14 38 0 24 -73 229 -83 236 -7 4 -8 8 -4 8 4 0 -5 21 -20 48 -14 26 -38 68 -52 93 -44 78 -144 209 -216 283 -45 46 -85 58 -85 26 0 -20 -33 -40 -66 -40 -25 0 -15 15 31 42 25 15 45 32 45 37 0 14 -36 47 -102 92 -31 21 -58 42 -60 46 -1 5 -21 18 -43 30 l-40 22 -13 -27z m158 -212 c-7 -4 -36 -8 -66 -8 -46 0 -54 2 -54 18 0 15 7 18 43 15 23 -1 51 1 62 5 23 9 35 -17 15 -30z"/>
<path d="M2905 3594 c-11 -11 -45 -39 -75 -61 -68 -49 -184 -163 -247 -240 -26 -32 -51 -61 -57 -65 -7 -5 -7 -8 -1 -8 6 0 3 -6 -6 -13 -9 -7 -28 -34 -44 -62 -15 -27 -36 -62 -46 -77 -11 -14 -19 -31 -19 -37 0 -6 -4 -11 -10 -11 -5 0 -10 -9 -10 -19 0 -11 -4 -22 -9 -25 -5 -3 -16 -29 -25 -58 -9 -29 -21 -62 -25 -73 -25 -60 -31 -78 -31 -95 0 -11 -4 -20 -10 -20 -5 0 -10 -11 -10 -24 0 -12 -4 -36 -9 -52 -19 -63 -30 -133 -36 -228 -6 -80 -5 -97 6 -93 8 2 13 10 12 16 -2 6 6 16 16 23 11 6 17 18 13 26 -3 9 -1 13 5 9 6 -4 16 0 23 8 7 8 9 15 4 15 -4 0 -3 5 3 11 6 6 9 17 7 24 -3 8 2 12 13 12 13 -2 22 11 34 47 17 50 65 115 85 116 7 0 14 7 17 15 4 8 23 22 44 33 57 28 85 45 113 68 14 12 36 25 50 29 14 4 39 18 57 31 17 13 36 24 40 24 5 0 18 9 30 19 11 10 34 26 51 35 18 9 32 21 32 26 0 6 8 10 18 10 11 0 43 23 72 51 50 48 52 52 46 89 -4 25 -2 40 5 42 9 3 8 18 -3 53 -9 28 -17 70 -17 95 -1 25 -6 49 -12 55 -5 5 -9 30 -9 56 0 26 -4 51 -10 54 -5 3 -10 20 -10 37 0 17 -7 36 -17 43 -10 7 -19 32 -22 61 l-6 49 -20 -21z m106 -483 c-11 -11 -23 -16 -26 -11 -5 9 35 43 43 36 2 -3 -6 -14 -17 -25z m-46 -70 c-3 -6 -14 -11 -23 -11 -15 1 -15 2 2 15 21 16 32 13 21 -4z"/>
</g>
<g id="layer106" fill="#dd991f" stroke="none">
<path d="M3810 3854 c0 -7 -51 -13 -146 -17 -80 -3 -149 -8 -152 -11 -11 -11 8 -18 48 -18 38 1 40 -1 40 -28 0 -16 4 -31 9 -34 4 -3 6 -17 3 -31 -5 -29 5 -31 78 -15 117 26 130 31 130 57 0 13 4 32 9 41 6 12 5 26 -5 42 -7 14 -13 20 -14 14z m-28 -86 c-7 -7 -12 -8 -12 -4 0 5 -12 1 -26 -9 -15 -9 -23 -12 -19 -5 4 7 1 10 -10 8 -10 -2 -20 2 -22 8 -2 7 5 10 19 7 13 -2 32 3 43 11 23 17 47 4 27 -16z"/>
<path d="M3865 3820 c3 -5 17 -10 30 -10 13 0 27 5 30 10 4 6 -8 10 -30 10 -22 0 -34 -4 -30 -10z"/>
<path d="M3810 3573 c0 -14 -52 -24 -66 -12 -18 15 -96 6 -115 -13 -12 -11 -18 -37 -21 -80 l-3 -63 32 -3 c20 -2 37 -11 43 -23 14 -26 70 -27 70 -1 0 24 19 42 46 42 36 0 43 19 33 89 -8 57 -19 94 -19 64z"/>
<path d="M4580 3535 c-36 -7 -72 -8 -81 -4 -21 11 -29 2 -29 -32 0 -15 -5 -31 -10 -34 -15 -9 5 -42 30 -50 11 -4 17 -11 14 -17 -10 -15 16 -28 59 -28 45 0 41 -16 -5 -23 -37 -5 -61 1 -53 13 6 10 -36 0 -52 -13 -7 -5 -13 -20 -13 -33 0 -13 -4 -24 -9 -24 -5 0 -9 -30 -10 -67 0 -38 -5 -69 -11 -71 -13 -5 -13 -109 0 -117 6 -3 10 -17 10 -31 0 -13 5 -24 11 -24 5 0 8 -4 4 -9 -3 -6 4 -15 16 -22 13 -6 33 -24 47 -40 16 -19 33 -29 52 -29 22 0 29 -5 32 -22 2 -17 20 -31 67 -54 35 -17 67 -38 72 -46 4 -8 26 -20 49 -28 22 -7 40 -16 40 -20 0 -5 19 -17 43 -29 55 -27 72 -39 116 -79 20 -17 44 -35 53 -38 9 -3 22 -22 29 -42 7 -20 19 -44 28 -52 18 -17 35 -43 54 -80 6 -14 24 -36 38 -50 14 -14 28 -33 32 -43 3 -9 11 -17 17 -17 5 0 10 -7 10 -15 0 -8 4 -15 9 -15 5 0 12 -8 15 -17 7 -26 -1 323 -9 375 -4 24 -13 56 -21 70 -8 15 -14 32 -14 38 0 24 -73 229 -83 236 -7 4 -8 8 -4 8 4 0 -5 21 -20 48 -14 26 -38 68 -52 93 -44 78 -144 209 -216 283 -45 46 -85 58 -85 26 0 -20 -33 -40 -66 -40 -25 0 -15 15 31 42 25 15 45 32 45 38 0 12 -51 59 -88 81 -23 13 -37 13 -92 4z m80 -135 c-7 -4 -36 -8 -66 -8 -46 0 -54 2 -54 18 0 15 7 18 43 15 23 -1 51 1 62 5 23 9 35 -17 15 -30z"/>
<path d="M3827 3373 c-5 -7 -5 -13 -1 -13 4 0 -1 -6 -12 -14 -17 -13 -20 -13 -26 2 -5 14 -7 13 -7 -5 -1 -19 -5 -21 -35 -16 -19 3 -36 1 -40 -6 -10 -16 -36 -13 -36 4 0 8 5 15 12 15 6 0 9 2 7 5 -8 8 -49 -7 -43 -16 3 -5 -2 -9 -10 -9 -21 0 -20 27 2 39 9 6 12 11 6 11 -25 0 -32 -29 -34 -130 -3 -172 -11 -270 -21 -270 -5 0 -9 -20 -9 -44 0 -25 -5 -48 -11 -52 -6 -4 -8 -20 -4 -40 3 -21 2 -34 -5 -34 -5 0 -10 -13 -10 -30 0 -16 -5 -30 -11 -30 -5 0 -8 -4 -5 -9 9 -14 -46 -110 -66 -117 -9 -3 -20 -14 -23 -25 -4 -10 -15 -19 -26 -19 -11 0 -22 -7 -25 -15 -4 -8 -14 -15 -24 -15 -11 0 -22 -5 -25 -10 -9 -14 -78 -44 -162 -69 -40 -12 -75 -21 -78 -21 -3 0 -20 -9 -38 -19 -18 -10 -49 -22 -68 -26 -34 -7 -69 -35 -69 -55 0 -14 -42 -104 -52 -111 -4 -3 -13 -51 -20 -108 -9 -74 -18 -111 -34 -134 -19 -29 -26 -32 -75 -32 l-54 0 -8 -55 c-6 -47 -14 -60 -51 -95 -39 -35 -49 -40 -89 -38 -36 1 -49 -3 -68 -23 -18 -19 -32 -24 -75 -24 l-52 0 8 -32 c8 -33 54 -127 88 -176 10 -15 27 -44 37 -64 11 -21 23 -38 26 -38 4 0 21 -21 37 -47 41 -67 227 -250 311 -308 39 -27 71 -51 71 -55 0 -3 51 -31 113 -60 61 -30 115 -58 118 -62 5 -7 118 -45 209 -69 206 -57 556 -57 760 -1 94 27 204 63 209 70 3 4 49 28 101 53 90 44 180 104 279 187 72 59 201 194 228 237 14 22 38 56 53 75 15 19 44 69 66 110 21 41 45 80 52 88 7 7 10 18 7 23 -4 5 -1 9 5 9 6 0 8 5 5 10 -3 6 -32 10 -63 10 -60 0 -87 10 -87 32 0 8 -21 15 -59 19 -53 6 -63 11 -93 45 -18 21 -35 55 -39 74 -9 57 -16 63 -71 64 -61 1 -90 23 -98 75 -4 20 -10 43 -14 51 -5 9 -12 45 -16 80 -7 65 -39 150 -56 150 -5 0 -9 9 -9 20 0 32 -40 66 -95 80 -63 16 -105 33 -105 42 0 5 -7 8 -15 8 -8 0 -38 11 -67 24 -29 13 -81 36 -115 51 -34 15 -70 36 -79 46 -9 11 -26 19 -37 19 -11 0 -17 3 -14 7 8 8 -22 43 -37 43 -13 0 -56 91 -56 119 0 11 -4 23 -10 26 -5 3 -10 19 -10 36 0 16 -4 29 -9 29 -5 0 -12 47 -16 105 -4 58 -11 108 -16 111 -5 3 -9 61 -9 129 0 89 -3 125 -12 128 -10 4 -10 7 0 15 8 5 12 23 10 43 -2 22 -6 29 -11 22z"/>
<path d="M2965 3228 c-11 -6 -24 -17 -28 -25 -5 -7 -12 -11 -18 -8 -5 3 -6 0 -3 -8 3 -8 -6 -18 -22 -25 -17 -8 -24 -18 -20 -28 3 -8 2 -12 -4 -9 -10 6 -50 -24 -50 -38 0 -14 -34 -45 -55 -49 -11 -2 -19 -11 -19 -21 1 -9 -2 -17 -7 -17 -10 0 -51 -33 -87 -70 -13 -14 -28 -24 -33 -23 -4 2 -11 -6 -14 -17 -4 -12 -12 -17 -22 -13 -12 5 -14 3 -8 -7 6 -10 4 -12 -8 -7 -11 4 -17 1 -17 -8 0 -8 -4 -15 -10 -15 -5 0 -10 -9 -10 -19 0 -21 -32 -37 -51 -25 -7 4 -10 1 -7 -7 6 -17 -112 -135 -131 -131 -7 2 -10 -1 -6 -7 3 -7 0 -8 -9 -5 -11 4 -16 0 -16 -14 0 -20 -28 -51 -39 -42 -14 12 -29 -53 -36 -154 -5 -88 -4 -107 7 -103 7 2 12 10 11 16 -2 6 6 16 16 23 11 6 17 18 13 26 -3 9 -1 13 5 9 6 -4 16 0 23 8 7 8 9 15 4 15 -4 0 -3 5 3 11 6 6 9 17 7 24 -3 8 2 12 13 12 13 -2 22 11 34 47 17 50 65 115 85 116 7 0 14 7 17 15 4 8 23 22 44 33 57 28 85 45 113 68 14 12 36 25 50 29 14 4 39 18 57 31 17 13 36 24 40 24 5 0 18 9 30 19 11 10 34 26 51 35 18 9 32 21 32 26 0 6 8 10 18 10 11 0 43 23 72 51 50 48 52 52 46 89 -4 25 -2 40 5 42 9 3 7 19 -5 56 -10 28 -15 55 -12 60 7 12 -27 12 -49 0z m46 -117 c-11 -11 -23 -16 -26 -11 -5 9 35 43 43 36 2 -3 -6 -14 -17 -25z m-46 -70 c-3 -6 -14 -11 -23 -11 -15 1 -15 2 2 15 21 16 32 13 21 -4z"/>
</g>
<g id="layer107" fill="#f1d34c" stroke="none">
<path d="M4620 3490 c0 -5 14 -10 31 -10 17 0 28 4 24 10 -3 6 -17 10 -31 10 -13 0 -24 -4 -24 -10z"/>
<path d="M4515 3472 c-31 -4 -55 -18 -55 -33 0 -5 5 -9 11 -9 7 0 21 -10 33 -23 12 -13 33 -26 46 -30 22 -5 23 -5 8 7 -10 7 -18 19 -18 25 0 7 -4 9 -10 6 -13 -8 -13 6 0 25 9 13 11 13 19 0 6 -8 11 -12 13 -10 2 3 12 15 22 27 19 22 18 22 -10 20 -16 -1 -42 -4 -59 -5z"/>
<path d="M4744 3468 c4 -13 0 -18 -13 -18 -11 0 -21 5 -23 10 -2 6 -20 1 -43 -11 -22 -12 -30 -19 -17 -16 12 3 22 1 22 -4 0 -4 7 -6 15 -3 8 4 15 1 15 -5 0 -8 11 -6 30 6 33 19 34 22 19 43 -9 13 -10 12 -5 -2z"/>
<path d="M3775 3444 c-6 -7 -25 -10 -41 -7 -27 5 -28 4 -10 -9 14 -11 16 -17 7 -22 -7 -5 -20 -1 -30 8 -14 13 -29 15 -59 10 -46 -7 -47 -24 -2 -24 19 0 33 -7 40 -20 15 -28 70 -28 70 -1 0 22 11 31 54 46 16 6 31 15 33 20 4 14 -48 13 -62 -1z"/>
<path d="M4750 3408 c0 -19 2 -20 10 -8 13 19 13 30 0 30 -5 0 -10 -10 -10 -22z"/>
<path d="M4605 3379 c6 -9 -15 -26 -40 -32 -11 -2 2 -3 28 -2 26 2 51 6 54 9 4 3 18 7 32 7 17 1 20 3 9 6 -10 2 -18 8 -18 11 0 4 -16 7 -35 8 -18 0 -32 -3 -30 -7z"/>
<path d="M3827 3373 c-5 -7 -5 -13 -1 -13 4 0 -1 -6 -12 -14 -17 -13 -20 -13 -26 2 -5 14 -7 13 -7 -5 -1 -19 -5 -21 -35 -16 -19 3 -36 1 -40 -6 -10 -16 -36 -13 -36 4 0 8 5 15 12 15 6 0 9 2 7 5 -8 8 -49 -7 -43 -16 3 -5 -2 -9 -10 -9 -21 0 -20 27 2 39 9 6 12 11 6 11 -21 0 -33 -26 -31 -67 1 -36 3 -40 17 -30 9 7 8 4 -3 -10 -12 -14 -18 -37 -18 -74 -1 -107 -11 -219 -20 -219 -5 0 -9 -20 -9 -44 0 -25 -5 -48 -11 -52 -6 -4 -8 -20 -4 -40 3 -21 2 -34 -5 -34 -5 0 -10 -13 -10 -30 0 -16 -5 -30 -11 -30 -5 0 -8 -4 -5 -9 9 -14 -46 -110 -66 -117 -9 -3 -20 -14 -23 -25 -4 -10 -15 -19 -26 -19 -11 0 -22 -7 -25 -15 -4 -8 -14 -15 -24 -15 -11 0 -22 -5 -25 -10 -9 -14 -78 -44 -162 -69 -40 -12 -75 -21 -78 -21 -3 0 -20 -9 -38 -19 -18 -10 -49 -22 -68 -26 -34 -7 -69 -35 -69 -55 0 -14 -42 -104 -52 -111 -4 -3 -13 -51 -20 -108 -9 -74 -18 -111 -34 -134 -19 -29 -26 -32 -75 -32 l-54 0 -8 -55 c-6 -47 -14 -60 -51 -95 -39 -35 -49 -40 -89 -38 -36 1 -49 -3 -68 -23 -18 -19 -32 -24 -75 -24 l-52 0 9 -35 c11 -39 53 -119 106 -202 18 -29 33 -57 33 -63 0 -5 4 -10 9 -10 5 0 20 -17 32 -37 49 -80 219 -249 322 -320 37 -26 67 -49 67 -53 0 -3 51 -31 113 -60 61 -30 115 -58 118 -62 5 -7 118 -45 209 -69 206 -57 556 -57 760 -1 95 27 204 63 209 70 3 4 46 27 94 50 119 57 247 150 381 277 77 72 201 239 253 337 21 40 41 74 46 76 4 2 7 12 7 23 0 10 5 19 11 19 5 0 7 5 4 10 -3 6 -32 10 -63 10 -60 0 -87 10 -87 32 0 8 -21 15 -59 19 -53 6 -63 11 -93 45 -18 21 -35 55 -39 74 -9 57 -16 63 -71 64 -61 1 -90 23 -98 75 -4 20 -10 43 -14 51 -5 9 -12 45 -16 80 -7 65 -39 150 -56 150 -5 0 -9 9 -9 20 0 32 -40 66 -95 80 -63 16 -105 33 -105 42 0 5 -7 8 -15 8 -8 0 -38 11 -67 24 -29 13 -81 36 -115 51 -34 15 -70 36 -79 46 -9 11 -26 19 -37 19 -11 0 -17 3 -14 7 8 8 -22 43 -37 43 -13 0 -56 91 -56 119 0 11 -4 23 -10 26 -5 3 -10 19 -10 36 0 16 -4 29 -9 29 -5 0 -12 47 -16 105 -4 58 -11 108 -16 111 -5 3 -9 61 -9 129 0 89 -3 125 -12 128 -10 4 -10 7 0 15 8 5 12 23 10 43 -2 22 -6 29 -11 22z m-100 -70 c-4 -3 0 -15 10 -25 20 -22 8 -24 -15 -2 -10 11 -17 13 -20 5 -6 -17 -22 -13 -22 5 0 8 4 13 8 10 4 -2 14 -1 22 5 18 10 26 12 17 2z m57 -12 c-10 -10 -22 -17 -26 -14 -11 6 14 32 31 33 11 0 9 -5 -5 -19z"/>
<path d="M4450 3345 c-8 -9 -9 -15 -2 -15 6 0 14 5 17 11 4 6 12 8 19 6 6 -2 22 -7 36 -11 21 -5 20 -3 -5 9 -39 18 -50 18 -65 0z"/>
<path d="M3017 3154 c-11 -11 -8 -26 3 -19 20 12 10 -6 -17 -31 -18 -16 -23 -28 -16 -35 14 -14 43 0 36 18 -3 8 0 19 7 23 10 6 11 14 4 30 -5 12 -13 18 -17 14z"/>
<path d="M4440 3069 c0 -6 -9 -8 -20 -4 -14 4 -20 2 -20 -9 0 -8 5 -18 10 -21 6 -3 10 -17 10 -31 0 -13 5 -24 11 -24 5 0 8 -4 4 -9 -3 -6 4 -15 16 -22 13 -6 33 -24 47 -40 16 -19 33 -29 52 -29 22 0 29 -5 32 -22 2 -17 20 -31 67 -54 35 -17 67 -38 72 -46 4 -8 26 -20 49 -28 22 -7 40 -16 40 -20 0 -5 19 -17 43 -29 23 -12 49 -26 58 -33 9 -6 24 -8 33 -5 16 6 16 8 1 23 -10 11 -12 20 -6 28 5 6 11 22 13 36 2 19 -1 24 -15 22 -21 -4 -19 20 3 30 11 5 9 7 -7 7 -21 1 -44 21 -24 21 6 0 11 5 11 11 0 6 -9 8 -21 4 -16 -5 -20 -3 -16 6 2 8 10 13 16 11 6 -1 11 2 11 8 0 5 -7 10 -15 10 -8 0 -15 5 -15 11 0 6 -7 8 -15 5 -11 -4 -15 0 -13 12 2 10 -3 17 -12 17 -8 0 -25 11 -37 25 -13 14 -23 21 -23 16 0 -4 -11 -1 -25 8 -18 12 -25 13 -26 4 0 -7 -5 -3 -11 10 -6 12 -18 22 -27 22 -9 0 -27 7 -39 16 -14 9 -22 11 -22 4 0 -14 -38 -3 -58 16 -7 8 -18 12 -23 8 -14 -9 -50 6 -43 18 5 7 -2 9 -20 4 -19 -5 -26 -3 -26 9 0 8 -4 15 -10 15 -5 0 -10 -5 -10 -11z"/>
<path d="M2903 3039 c-28 -10 -29 -15 -2 -30 15 -7 19 -8 15 0 -4 6 -1 9 7 5 15 -6 20 -54 6 -54 -5 0 -9 -4 -9 -10 0 -15 12 -11 43 14 27 21 27 24 12 40 -9 9 -12 16 -6 16 5 0 13 -4 16 -10 11 -18 25 -10 25 15 0 28 -18 32 -50 13 -15 -10 -23 -10 -28 -2 -4 7 -15 8 -29 3z"/>
<path d="M2240 2479 c0 -16 5 -20 20 -16 12 3 20 0 20 -8 0 -19 27 -26 40 -9 10 11 9 14 -4 14 -9 0 -21 9 -28 20 -17 27 -48 26 -48 -1z"/>
<path d="M2290 1921 c-14 -27 -13 -41 4 -41 8 0 16 13 18 30 5 34 -6 40 -22 11z"/>
<path d="M5155 1868 c4 -18 13 -39 20 -46 10 -11 14 -9 19 13 8 30 3 41 -26 56 -19 10 -20 9 -13 -23z"/>
</g>
<g id="layer108" fill="#cad188" stroke="none">
<path d="M3526 4253 c-15 -4 -16 -7 -5 -15 10 -7 0 -8 -29 -4 -32 5 -42 3 -36 -5 5 -9 -2 -10 -24 -6 -19 4 -32 2 -32 -3 0 -6 -7 -10 -16 -10 -9 0 -12 5 -8 13 4 6 -2 4 -13 -5 -11 -10 -26 -18 -34 -18 -12 0 -11 2 1 11 12 9 12 10 -3 5 -10 -3 -26 -6 -35 -6 -15 0 -15 -2 -2 -11 11 -8 6 -9 -20 -4 -27 5 -32 4 -20 -5 12 -9 9 -10 -13 -5 -21 4 -27 3 -21 -6 5 -9 2 -10 -11 -5 -25 9 -131 -24 -113 -35 9 -6 9 -9 1 -9 -6 0 -20 -3 -30 -6 -15 -5 -16 -4 -3 6 13 11 13 11 0 7 -50 -16 -99 -40 -95 -47 5 -8 -45 -33 -53 -25 -3 3 1 5 8 5 7 0 11 3 7 6 -8 9 -148 -67 -141 -77 3 -5 -3 -6 -12 -2 -13 5 -15 3 -9 -7 5 -9 4 -11 -3 -6 -15 9 -54 -12 -47 -24 3 -6 0 -7 -8 -4 -7 2 -25 -5 -38 -16 -13 -12 -18 -18 -10 -14 9 4 12 3 7 -4 -4 -6 -13 -9 -20 -6 -8 3 -17 0 -22 -7 -5 -8 -3 -10 6 -4 8 5 11 4 6 -3 -4 -6 -13 -9 -21 -5 -9 3 -15 -1 -15 -10 0 -9 -5 -19 -12 -23 -7 -4 -8 -3 -4 4 4 7 3 12 -2 12 -10 0 -28 -19 -34 -35 -1 -5 -9 -10 -17 -12 -8 -1 -21 -10 -30 -19 -15 -17 -15 -17 4 -4 20 15 20 14 1 -8 -20 -23 -32 -30 -21 -12 13 22 -12 8 -47 -26 -46 -43 -51 -59 -5 -18 l32 29 -29 -32 c-16 -18 -32 -32 -35 -31 -18 2 -31 -3 -31 -13 0 -5 6 -7 13 -3 6 4 -1 -7 -17 -24 -30 -33 -43 -41 -30 -21 4 7 1 10 -7 7 -8 -3 -13 -12 -13 -21 1 -9 -10 -26 -25 -39 l-26 -23 25 30 c17 21 12 18 -18 -10 -40 -37 -57 -65 -29 -49 8 5 8 3 -2 -9 -7 -9 -17 -14 -22 -12 -7 5 -36 -36 -30 -43 2 -2 -1 -7 -5 -10 -4 -4 -3 0 1 8 8 13 7 13 -9 1 -9 -8 -15 -20 -12 -27 3 -7 0 -16 -6 -20 -7 -5 -8 -2 -3 6 5 9 4 11 -4 6 -12 -8 -43 -63 -39 -70 2 -2 -1 -8 -6 -13 -5 -5 -6 -3 -2 5 4 6 2 12 -5 12 -6 0 -9 -8 -6 -20 3 -11 0 -18 -7 -17 -6 1 -10 -6 -10 -15 1 -10 -2 -15 -7 -13 -11 8 -31 -33 -23 -47 4 -6 3 -8 -4 -4 -12 7 -45 -51 -36 -65 3 -5 0 -8 -8 -7 -8 2 -13 -6 -12 -19 0 -12 -3 -20 -6 -18 -11 7 -30 -43 -24 -60 4 -10 2 -15 -7 -13 -9 2 -14 -5 -13 -19 0 -12 -3 -20 -7 -17 -11 6 -22 -33 -13 -47 4 -7 3 -9 -3 -6 -12 8 -53 -101 -83 -220 -21 -85 -24 -112 -10 -78 7 15 9 16 9 4 1 -9 -6 -22 -14 -29 -17 -14 -21 -35 -5 -25 15 9 12 -4 -5 -21 -17 -17 -21 -39 -5 -29 6 3 10 -1 10 -9 0 -9 -5 -16 -11 -16 -7 0 -9 -12 -4 -36 4 -24 3 -34 -4 -29 -6 3 -11 0 -11 -7 0 -7 -3 -24 -7 -37 -4 -17 -3 -22 5 -17 8 5 12 -4 11 -31 -1 -38 -1 -38 -9 -8 -4 18 -8 -32 -8 -120 1 -90 4 -136 8 -115 7 34 7 34 9 -13 0 -30 -3 -46 -9 -42 -11 7 -13 -9 -4 -42 4 -13 10 -20 15 -17 6 3 7 -12 3 -35 -4 -28 -3 -41 5 -41 6 0 11 -5 11 -11 0 -5 -5 -7 -11 -3 -7 4 -9 0 -6 -12 3 -11 11 -47 18 -82 8 -42 15 -59 20 -50 5 8 6 -1 2 -21 -4 -23 -3 -32 5 -28 6 4 8 0 6 -11 -3 -9 11 -62 30 -117 51 -147 65 -177 78 -169 8 5 9 1 5 -11 -8 -20 99 -229 113 -220 4 2 7 -3 6 -13 0 -9 4 -16 11 -15 7 2 10 -3 7 -11 -3 -8 0 -17 7 -22 8 -5 10 -3 4 7 -5 8 -4 11 1 6 5 -5 9 -16 9 -25 0 -9 5 -16 11 -15 7 1 11 -5 10 -15 0 -9 4 -17 11 -17 6 0 15 -4 20 -9 5 -5 3 -6 -4 -2 -22 12 -14 -10 9 -30 22 -19 23 -19 8 1 -14 18 -14 19 2 7 9 -8 15 -19 12 -26 -3 -7 6 -21 18 -32 23 -19 23 -19 8 1 -15 20 -14 20 8 1 23 -20 30 -32 12 -21 -25 16 -6 -15 32 -50 l43 -40 -35 40 -35 40 37 -34 c21 -19 35 -38 32 -43 -9 -14 38 -59 54 -53 7 3 10 0 7 -6 -4 -5 -1 -16 5 -24 14 -17 35 -21 25 -5 -12 20 2 9 31 -22 l29 -33 -30 25 -30 25 30 -33 c16 -18 35 -30 41 -28 7 3 20 -5 31 -17 l18 -22 -25 20 c-21 16 -20 14 4 -13 28 -30 55 -45 41 -22 -10 16 1 11 16 -7 12 -14 12 -16 0 -8 -10 6 -12 4 -7 -4 5 -7 14 -10 22 -7 7 3 16 0 20 -6 5 -7 2 -8 -7 -3 -12 8 -12 6 0 -9 8 -9 20 -15 27 -12 7 3 16 0 20 -6 5 -7 2 -8 -7 -4 -8 4 -3 -2 10 -14 13 -11 30 -19 38 -16 7 3 12 0 10 -7 -1 -7 6 -11 16 -11 10 1 16 -1 13 -4 -10 -9 33 -34 46 -26 7 5 8 3 3 -6 -6 -10 -4 -12 8 -7 10 4 16 2 14 -6 -1 -7 6 -11 15 -11 10 1 15 -3 11 -9 -4 -6 0 -8 11 -4 9 4 15 3 12 -1 -8 -13 81 -52 100 -45 11 4 15 2 11 -4 -8 -13 68 -48 84 -38 7 5 10 4 6 -2 -7 -11 52 -37 61 -28 3 3 -1 5 -8 5 -7 0 -11 2 -8 5 8 8 39 -6 33 -14 -2 -5 11 -13 30 -19 25 -7 33 -7 28 1 -4 7 0 8 11 4 10 -4 23 -7 29 -7 7 0 6 -5 -3 -11 -12 -8 -9 -10 12 -6 17 2 25 0 21 -6 -4 -6 4 -7 21 -3 20 5 26 4 20 -5 -5 -9 2 -10 27 -6 25 5 30 4 19 -3 -11 -8 -5 -9 22 -4 27 4 42 2 53 -10 9 -9 22 -16 28 -16 7 0 6 4 -3 10 -13 8 -12 10 3 10 10 0 25 -7 33 -15 9 -8 23 -15 32 -15 15 0 15 2 2 10 -24 15 5 12 36 -5 33 -17 58 -20 49 -5 -3 6 3 10 14 10 12 0 21 -4 21 -10 0 -6 54 -10 141 -10 91 0 138 4 134 10 -3 6 4 10 17 10 18 0 20 -2 8 -10 -26 -17 10 -12 44 5 34 18 70 21 46 4 -11 -8 -9 -9 10 -3 14 4 27 11 28 15 2 5 11 9 20 9 15 0 15 -2 2 -10 -9 -6 -10 -10 -3 -10 6 0 19 7 28 16 11 12 26 14 53 10 28 -5 33 -4 22 4 -11 9 -7 10 19 5 18 -4 31 -3 28 2 -3 4 13 8 35 8 25 0 44 6 52 16 14 20 62 37 51 18 -6 -9 -3 -11 9 -6 10 4 20 7 22 7 3 0 2 5 -2 11 -4 8 1 9 16 4 17 -5 21 -4 15 6 -6 9 -3 11 9 6 19 -8 114 28 132 49 6 8 13 11 16 8 8 -7 118 48 113 57 -3 4 2 10 11 13 9 4 13 2 8 -5 -4 -8 0 -7 15 0 11 7 21 14 21 17 0 3 -5 2 -12 -2 -7 -4 -8 -3 -4 4 4 6 12 9 19 6 7 -2 21 3 32 12 11 8 14 12 6 8 -9 -4 -12 -3 -7 4 4 6 12 9 19 7 16 -6 80 33 73 44 -3 5 2 8 11 7 10 0 18 6 18 14 0 8 9 15 20 15 11 0 20 7 20 15 0 8 7 14 16 12 8 -1 26 10 40 25 l24 28 -25 -20 -25 -20 18 22 c11 12 24 20 31 17 7 -3 23 8 36 23 l25 28 -25 -20 -25 -20 24 28 c24 27 38 36 26 17 -3 -5 -2 -10 3 -10 14 0 134 129 128 138 -3 5 7 20 22 33 l27 24 -25 -30 c-22 -27 -21 -26 13 5 21 19 35 40 33 46 -3 7 3 18 12 26 16 12 16 11 2 -7 -15 -20 -15 -20 8 -1 12 11 20 26 18 33 -3 7 0 15 6 19 7 4 8 3 4 -4 -4 -7 -2 -12 3 -12 11 0 13 6 15 40 1 8 8 15 16 15 8 0 14 8 14 17 -1 10 3 16 10 15 6 -1 10 6 10 15 -1 10 3 16 8 15 6 -1 13 4 16 12 3 9 0 11 -8 6 -9 -5 -11 -4 -6 4 4 6 11 9 16 6 11 -7 43 52 35 65 -3 5 0 12 6 16 8 5 10 2 5 -7 -4 -8 0 -5 8 6 9 11 14 25 11 33 -2 7 -1 10 5 7 12 -8 33 33 26 51 -3 8 -2 13 2 10 13 -8 66 110 57 124 -6 9 -4 11 5 5 10 -6 12 -4 7 9 -4 9 -3 14 2 11 13 -7 23 28 15 50 -5 12 -4 16 3 12 15 -10 56 116 48 145 -4 16 -3 19 3 10 7 -10 11 -6 15 16 18 88 18 88 8 67 -8 -16 -10 -16 -10 -4 -1 9 6 22 14 29 17 14 21 35 5 25 -5 -3 -10 -2 -10 3 0 6 7 12 15 16 8 3 15 13 15 23 0 15 -2 16 -10 3 -8 -12 -10 -10 -10 8 0 13 4 21 9 18 5 -3 11 3 14 14 3 11 1 20 -4 20 -5 0 -9 7 -9 16 0 8 4 13 9 10 5 -3 11 7 14 22 3 15 1 29 -4 30 -5 2 -9 16 -8 30 0 23 1 24 8 7 4 -11 8 61 8 160 0 99 -4 171 -8 160 -7 -17 -8 -16 -8 7 -1 14 4 28 10 30 6 2 8 14 3 32 -5 20 -9 24 -15 14 -6 -9 -9 -7 -9 10 0 13 4 21 9 18 4 -3 6 6 3 19 -2 14 -8 25 -13 25 -5 0 -9 7 -9 16 0 9 5 12 12 8 8 -5 9 -2 5 10 -4 10 -7 24 -7 31 0 8 -6 20 -13 27 -8 7 -17 31 -20 53 -5 30 -4 35 3 20 9 -18 10 -17 5 5 -2 14 -5 29 -5 33 0 5 -5 5 -12 1 -7 -5 -8 -3 -3 6 9 14 -24 132 -36 125 -4 -3 -5 5 -1 17 3 13 1 19 -5 15 -7 -5 -9 1 -5 15 3 14 1 19 -6 14 -8 -4 -10 -2 -6 7 7 20 -23 90 -36 82 -6 -4 -7 1 -3 11 5 13 3 15 -7 9 -9 -5 -11 -4 -6 4 9 15 -13 73 -24 66 -5 -3 -12 0 -16 6 -4 8 -3 9 4 5 15 -9 15 -1 1 25 -5 11 -14 17 -19 14 -6 -3 -7 0 -5 7 3 8 -2 22 -11 33 -8 11 -12 14 -8 6 5 -9 3 -12 -5 -7 -6 4 -9 11 -6 16 6 10 -46 110 -58 110 -4 0 0 -12 9 -27 l16 -28 -20 25 c-14 16 -17 28 -11 36 6 8 4 14 -6 18 -11 4 -14 2 -9 -6 4 -7 3 -8 -4 -4 -6 4 -9 13 -6 20 3 7 -3 19 -13 27 -17 13 -17 13 -3 -6 12 -17 12 -18 0 -7 -8 7 -15 20 -15 30 0 9 -7 17 -15 17 -8 1 -14 7 -12 14 3 16 -17 43 -28 36 -4 -3 -14 3 -21 13 -13 15 -12 16 4 3 38 -30 14 8 -38 59 -30 30 -55 51 -55 46 0 -5 -7 -3 -15 4 -8 7 -13 16 -10 20 7 11 -36 52 -50 46 -7 -2 -23 7 -36 22 l-24 27 28 -24 c15 -14 27 -21 27 -18 0 9 -63 66 -73 67 -5 0 -5 -6 -1 -12 5 -9 2 -9 -9 1 -20 16 -23 26 -4 15 8 -5 7 -2 -2 10 -8 9 -20 15 -27 12 -7 -3 -18 3 -26 12 -12 16 -11 16 6 2 15 -11 18 -11 12 -2 -13 21 -127 92 -138 86 -4 -3 -7 0 -6 8 2 7 -5 12 -14 12 -10 -1 -16 2 -13 6 3 4 -2 11 -11 14 -9 4 -13 2 -8 -5 4 -8 0 -7 -15 0 -22 12 -30 27 -8 16 6 -4 3 1 -8 9 -11 9 -25 14 -33 11 -7 -2 -10 0 -7 5 8 12 -92 63 -107 54 -6 -4 -8 -3 -5 3 4 6 0 14 -9 17 -22 8 -26 8 -19 -4 3 -6 -1 -7 -9 -4 -9 3 -14 9 -11 14 2 4 -6 12 -20 18 -18 8 -25 8 -29 -1 -2 -7 -5 -4 -5 7 -1 13 -6 17 -21 13 -13 -3 -18 -1 -13 6 4 6 -2 8 -15 5 -12 -4 -20 -2 -16 3 3 5 -3 8 -13 7 -10 0 -27 0 -38 1 -15 1 -17 3 -7 10 10 6 9 10 -7 14 -12 3 -21 0 -21 -6 0 -6 -6 -3 -14 8 -8 12 -20 16 -35 12 -13 -3 -19 -1 -15 5 4 7 -5 8 -26 3 -20 -4 -30 -3 -27 2 4 6 -5 8 -21 6 -21 -4 -24 -2 -12 6 13 9 13 11 -2 11 -9 0 -25 3 -35 6 -15 5 -15 4 -3 -5 13 -9 13 -11 -2 -11 -9 0 -21 6 -25 14 -10 17 -61 26 -67 12 -3 -7 -8 -7 -14 3 -7 9 -19 11 -42 6 -21 -5 -30 -4 -26 3 3 5 -4 12 -17 16 -12 3 -23 1 -25 -4 -2 -6 -36 -9 -75 -8 l-72 1 60 6 c35 4 -6 6 -100 6 -100 0 -135 -2 -95 -6 l65 -6 -78 -1 c-50 -1 -76 2 -72 8 6 10 -6 11 -39 3z m347 -147 c-3 -4 23 -6 58 -2 44 4 58 3 44 -4 -14 -7 -5 -8 31 -4 31 4 54 2 58 -4 3 -6 15 -8 26 -5 12 3 22 -1 26 -11 3 -9 10 -16 16 -16 5 0 6 5 3 10 -3 6 -2 10 3 10 6 0 13 -7 16 -16 5 -12 14 -15 37 -10 21 4 28 2 23 -6 -5 -8 1 -9 20 -4 16 4 25 3 22 -2 -3 -6 3 -12 14 -15 11 -3 18 -1 14 4 -6 11 -2 11 20 3 9 -3 14 -10 11 -14 -3 -4 2 -10 10 -14 8 -3 15 0 15 7 0 7 5 4 11 -6 8 -14 18 -17 36 -12 14 3 22 2 19 -3 -8 -13 69 -46 85 -37 8 5 10 4 5 -3 -4 -7 -5 -12 -3 -12 3 0 21 -7 42 -16 20 -8 34 -10 30 -5 -3 7 0 8 9 5 9 -3 14 -11 13 -16 -1 -6 4 -13 12 -16 9 -3 11 0 6 9 -5 8 -4 11 1 6 5 -5 9 -14 9 -20 0 -7 10 -12 22 -11 12 0 19 -4 16 -9 -4 -6 1 -8 10 -4 10 4 16 2 14 -6 -1 -7 6 -11 15 -11 10 1 15 -3 11 -9 -4 -6 0 -8 11 -4 11 5 15 3 10 -5 -5 -8 -2 -9 9 -5 9 3 19 1 23 -5 5 -7 2 -8 -6 -3 -9 6 -11 4 -6 -4 5 -7 14 -10 22 -7 7 3 16 0 20 -6 5 -7 2 -8 -7 -3 -12 8 -12 6 0 -9 8 -9 21 -14 30 -11 8 3 12 3 8 -1 -8 -8 11 -34 25 -34 5 0 6 6 2 13 -4 7 -3 9 2 4 5 -5 9 -14 9 -20 0 -5 6 -12 14 -15 8 -3 11 0 7 7 -11 17 0 13 15 -6 12 -15 12 -16 -1 -8 -13 8 -13 7 -1 -9 8 -9 20 -15 27 -12 7 3 18 -3 26 -12 12 -16 11 -16 -7 -2 -20 15 -20 15 -1 -8 11 -13 26 -20 34 -17 12 4 13 3 2 -10 -7 -8 -10 -15 -7 -15 3 0 13 -3 23 -7 13 -5 15 -3 9 8 -4 8 31 -24 78 -70 47 -46 83 -89 81 -95 -3 -7 8 -23 23 -36 l28 -25 -20 25 c-19 25 -19 25 0 7 11 -10 20 -25 20 -35 0 -9 5 -17 12 -17 6 0 15 -4 20 -9 5 -5 3 -6 -4 -2 -7 4 -13 3 -13 -3 0 -11 19 -25 35 -26 6 0 9 -8 7 -17 -1 -9 3 -20 9 -24 8 -5 9 -3 4 6 -5 8 -4 11 3 6 6 -4 9 -13 6 -20 -3 -8 0 -17 7 -22 8 -5 10 -3 4 6 -5 8 -4 11 3 6 6 -4 9 -13 6 -20 -3 -8 0 -17 7 -22 8 -5 10 -3 4 6 -5 8 -4 11 3 6 6 -4 8 -14 5 -23 -4 -10 -2 -14 4 -10 6 4 10 -1 9 -11 0 -9 4 -16 11 -15 8 2 10 -4 6 -14 -4 -11 -3 -14 5 -9 8 5 10 1 5 -10 -4 -12 -3 -15 5 -10 8 5 10 1 5 -10 -4 -12 -3 -15 5 -10 8 5 10 1 5 -10 -4 -12 -3 -15 5 -10 8 5 10 1 5 -10 -4 -12 -3 -15 5 -10 8 5 10 1 5 -10 -4 -12 -3 -15 5 -10 8 5 10 1 5 -10 -4 -12 -3 -15 5 -10 8 5 10 1 5 -10 -5 -13 -3 -15 7 -9 9 5 11 4 6 -4 -10 -16 3 -53 16 -45 7 4 8 2 4 -5 -10 -16 3 -53 16 -45 7 4 8 2 4 -5 -10 -15 23 -113 35 -105 6 3 7 -5 3 -22 -5 -19 -4 -25 4 -20 8 5 10 -3 6 -26 -5 -26 -3 -30 6 -18 9 12 10 11 5 -8 -8 -29 2 -75 15 -67 6 3 10 -1 10 -10 0 -9 -4 -13 -10 -10 -5 3 -10 1 -10 -5 0 -6 7 -13 15 -16 8 -4 15 -14 15 -23 0 -14 -2 -14 -10 -1 -8 13 -10 13 -10 -1 0 -9 7 -22 16 -30 12 -10 14 -27 10 -88 -2 -42 -1 -58 2 -36 4 22 7 -48 7 -155 0 -107 -3 -181 -7 -165 -4 17 -5 -1 -2 -38 5 -55 3 -72 -11 -87 -11 -12 -17 -38 -18 -73 -1 -30 -6 -52 -11 -49 -5 3 -6 -9 -3 -29 4 -20 3 -29 -2 -21 -6 11 -10 9 -14 -7 -3 -12 -1 -21 4 -21 5 0 9 -5 9 -11 0 -5 -5 -7 -11 -3 -8 4 -9 -1 -4 -16 5 -14 3 -20 -3 -16 -13 8 -36 -59 -28 -80 4 -9 2 -12 -5 -8 -8 4 -9 -1 -4 -17 4 -13 4 -21 0 -17 -5 4 -14 0 -21 -10 -9 -13 -10 -20 -1 -31 10 -12 9 -13 -2 -6 -11 6 -13 4 -8 -9 4 -9 3 -14 -2 -11 -12 7 -24 -31 -15 -46 5 -8 3 -9 -6 -4 -10 6 -12 4 -7 -9 5 -11 3 -15 -5 -10 -8 5 -9 2 -5 -10 5 -11 3 -15 -5 -10 -8 5 -9 2 -5 -10 5 -11 3 -15 -5 -10 -8 5 -9 2 -5 -10 5 -11 3 -15 -5 -10 -8 5 -9 2 -5 -10 5 -11 3 -15 -5 -10 -7 5 -9 2 -5 -8 3 -9 -1 -24 -9 -35 -14 -17 -14 -16 -4 7 11 24 10 24 -5 5 -8 -11 -13 -25 -10 -33 2 -7 1 -10 -5 -7 -12 7 -33 -32 -24 -47 4 -6 3 -8 -4 -4 -6 3 -20 -7 -31 -23 -24 -33 -27 -45 -8 -35 7 4 9 3 4 -2 -5 -5 -14 -9 -20 -9 -5 0 -12 -6 -15 -14 -3 -9 0 -11 9 -6 8 5 11 5 7 1 -3 -4 -8 -6 -10 -4 -5 4 -38 -28 -38 -37 0 -3 6 -3 13 1 7 4 9 3 4 -2 -5 -5 -12 -8 -15 -7 -10 2 -42 -28 -42 -39 0 -5 6 -6 13 -2 9 5 9 3 -1 -7 -7 -8 -18 -14 -25 -14 -7 0 -12 -8 -12 -17 0 -23 -164 -188 -180 -182 -6 3 -18 -3 -26 -12 -12 -16 -12 -17 1 -9 13 8 13 7 1 -8 -15 -18 -26 -23 -16 -7 10 17 -4 11 -24 -9 -11 -11 -17 -22 -15 -24 3 -3 0 -8 -7 -13 -8 -4 -10 -3 -5 4 13 21 -10 13 -30 -10 -19 -22 -19 -23 1 -8 18 14 19 14 7 -2 -8 -9 -19 -15 -27 -12 -7 3 -16 0 -21 -7 -5 -8 -3 -10 7 -4 8 5 11 4 6 -1 -5 -5 -16 -9 -25 -9 -9 0 -16 -5 -15 -11 1 -7 -5 -11 -15 -10 -9 0 -16 -4 -15 -11 2 -8 -4 -10 -14 -6 -11 4 -14 3 -9 -5 4 -7 2 -10 -7 -6 -7 2 -25 -5 -38 -16 -13 -12 -18 -19 -11 -15 21 11 13 -4 -9 -16 -15 -8 -19 -8 -15 0 5 8 0 8 -18 0 -14 -7 -23 -16 -20 -20 3 -5 -3 -6 -12 -2 -12 4 -15 3 -10 -5 5 -8 1 -10 -10 -5 -13 5 -15 3 -9 -7 5 -8 4 -11 -3 -7 -14 9 -43 -3 -36 -14 3 -5 -1 -10 -8 -10 -7 -1 -20 -3 -28 -4 -8 -1 -21 -3 -28 -4 -7 0 -10 -6 -6 -13 4 -7 3 -8 -5 -4 -16 10 -53 -3 -45 -16 4 -6 -1 -8 -16 -3 -17 5 -21 4 -15 -5 5 -9 4 -11 -4 -6 -15 10 -53 -3 -46 -15 4 -5 1 -9 -4 -9 -6 0 -11 4 -11 9 0 5 -15 4 -35 -2 -20 -6 -31 -14 -24 -17 15 -10 -43 -20 -71 -13 -16 4 -21 3 -16 -5 5 -8 -3 -10 -26 -6 -19 3 -28 2 -21 -3 6 -5 -10 -8 -40 -8 -31 0 -52 -5 -54 -12 -3 -7 -14 -13 -26 -12 -21 0 -21 1 -2 9 11 5 14 9 7 9 -7 1 -26 -6 -43 -14 -30 -16 -31 -16 -426 -6 -18 0 -33 4 -33 10 0 5 -9 11 -20 14 -11 3 -18 1 -14 -4 3 -5 0 -9 -5 -9 -6 0 -11 4 -11 9 0 5 -9 11 -20 14 -11 3 -18 1 -14 -4 3 -5 -2 -9 -11 -9 -10 0 -13 5 -9 11 5 9 -1 10 -20 5 -20 -5 -26 -4 -20 5 5 9 0 10 -16 6 -28 -7 -86 3 -71 13 7 3 -4 11 -24 17 -19 6 -33 7 -29 2 3 -5 0 -9 -5 -9 -6 0 -11 4 -11 10 0 5 -7 7 -15 4 -8 -4 -15 -1 -15 5 0 6 -7 8 -17 4 -10 -4 -14 -2 -10 4 7 11 -22 28 -31 18 -3 -3 1 -5 8 -5 7 0 11 -2 8 -5 -8 -8 -39 6 -33 15 7 12 -32 23 -46 14 -7 -4 -9 -3 -6 3 8 12 -20 26 -34 18 -5 -3 -21 1 -36 10 -16 9 -20 14 -10 11 11 -4 16 -2 11 5 -3 6 -15 9 -25 6 -11 -3 -17 -2 -14 2 2 5 -7 13 -21 20 -18 8 -23 8 -18 0 4 -8 0 -8 -15 0 -11 7 -21 16 -21 21 0 14 -62 51 -76 46 -5 -2 -21 5 -35 16 -13 11 -17 17 -9 13 8 -4 6 0 -4 9 -10 8 -23 13 -28 10 -5 -3 -7 0 -6 8 2 7 -5 13 -14 13 -9 0 -20 4 -25 9 -5 5 -2 6 7 1 13 -8 13 -7 1 8 -14 18 -36 24 -26 7 10 -16 -1 -11 -16 7 -12 15 -12 16 1 8 8 -4 5 2 -7 14 -23 22 -39 28 -28 11 12 -19 -2 -10 -26 17 l-24 28 25 -20 c21 -16 20 -14 -4 13 -29 32 -54 44 -40 20 4 -7 -23 16 -59 51 -36 35 -63 69 -61 75 3 7 -10 25 -28 41 -27 25 -29 26 -13 5 l20 -25 -22 18 c-12 11 -20 24 -17 31 3 7 -6 21 -18 32 -23 19 -23 19 -8 -1 12 -17 12 -18 0 -7 -8 7 -15 20 -15 30 0 9 -7 17 -15 17 -10 0 -14 8 -12 24 3 18 0 22 -11 18 -10 -4 -21 4 -32 21 l-16 27 20 -24 c12 -13 21 -19 21 -15 0 5 -12 23 -26 39 -14 17 -22 24 -18 16 5 -9 3 -12 -5 -7 -6 4 -9 11 -6 16 6 10 -24 73 -50 105 -16 19 -16 19 -5 -5 10 -23 10 -24 -4 -7 -8 11 -12 26 -9 35 4 10 2 13 -5 8 -8 -5 -10 -1 -5 10 5 13 3 15 -7 9 -9 -6 -11 -4 -5 4 10 17 -35 112 -48 104 -6 -3 -7 -1 -3 6 10 16 -3 53 -16 45 -7 -5 -9 -1 -5 9 3 8 -7 55 -22 104 -16 51 -30 82 -34 73 -3 -8 -3 1 0 20 4 28 2 32 -7 20 -9 -12 -10 -11 -5 7 8 30 -5 99 -16 82 -4 -7 -6 7 -3 32 3 32 2 39 -5 24 -7 -14 -8 -4 -5 35 3 41 1 49 -5 30 -7 -17 -8 1 -6 60 3 61 1 74 -4 45 -5 -26 -8 17 -8 125 0 107 3 151 8 125 5 -27 6 -13 3 43 -4 66 -2 86 11 98 17 17 21 39 5 29 -16 -10 -12 5 6 23 12 11 15 27 11 56 -4 29 -3 36 5 25 7 -10 8 -5 4 19 -3 18 -2 31 3 28 5 -3 11 1 15 9 3 8 1 15 -4 15 -6 0 -10 5 -10 11 0 5 5 7 10 4 7 -4 9 3 5 22 -4 18 -3 23 2 15 11 -15 48 92 37 110 -5 7 -3 8 6 3 10 -6 12 -3 8 13 -4 14 -2 20 5 15 7 -4 8 0 4 11 -5 11 -3 15 5 10 7 -5 9 0 6 14 -4 12 -3 20 2 17 11 -7 21 21 14 39 -3 8 0 17 7 22 8 4 10 3 5 -4 -4 -7 -5 -12 -2 -12 7 0 56 95 56 107 0 4 -5 1 -10 -7 -6 -9 -10 -10 -10 -3 0 7 9 17 21 23 12 7 18 18 15 26 -3 8 -2 13 3 10 9 -6 75 94 66 102 -3 3 -5 1 -5 -4 0 -5 -10 -20 -21 -34 l-21 -25 21 35 c11 19 25 35 31 35 12 0 49 44 50 58 0 5 -6 5 -12 1 -8 -4 -10 -3 -5 2 5 5 14 9 20 9 7 0 12 8 12 17 0 10 7 23 15 30 12 11 12 10 0 -7 -15 -20 -15 -20 8 -1 12 11 21 25 18 32 -5 13 37 57 47 48 6 -7 66 56 67 70 0 6 -15 -3 -32 -19 -18 -17 -6 -2 27 33 57 59 73 74 60 52 -7 -11 -3 -12 19 -4 8 3 12 12 9 21 -4 10 -2 14 4 10 6 -4 19 3 29 16 19 21 19 21 -1 7 -18 -14 -19 -14 -7 2 8 9 19 15 26 12 7 -3 21 6 32 18 19 23 19 23 -1 8 -17 -12 -18 -12 -7 0 7 8 20 15 30 15 9 0 17 5 17 12 0 6 4 15 9 20 5 5 6 3 2 -4 -4 -7 -3 -13 2 -13 13 0 33 25 26 32 -3 3 3 5 13 5 9 -1 18 3 18 10 0 6 4 15 9 20 5 5 6 2 1 -6 -5 -9 -3 -12 6 -9 8 3 14 10 14 16 0 5 4 14 9 19 5 5 6 2 1 -6 -5 -9 -3 -12 6 -9 8 3 13 10 12 16 -2 6 4 9 12 6 8 -3 25 5 39 19 14 14 27 22 30 19 3 -3 6 0 6 6 0 6 14 19 31 28 17 8 28 11 24 4 -4 -7 5 -6 27 3 73 32 107 51 102 59 -3 4 0 8 5 8 6 0 11 -5 11 -11 0 -5 5 -7 10 -4 6 4 7 11 4 17 -5 7 -1 9 9 5 9 -3 33 0 54 8 21 7 31 14 23 15 -10 1 -9 4 5 10 28 12 43 12 25 -1 -12 -9 -12 -10 3 -5 10 3 24 6 30 6 7 0 6 5 -3 11 -11 7 -6 8 19 4 20 -5 31 -3 28 2 -4 6 5 8 21 6 21 -4 24 -2 12 6 -11 8 -5 9 22 4 29 -4 39 -2 44 11 3 9 10 16 16 16 5 0 6 -6 1 -12 -4 -7 5 -5 21 5 21 14 38 17 69 12 32 -5 38 -3 27 5 -11 8 2 9 49 4 38 -4 62 -3 58 2 -3 6 49 9 128 9 73 0 131 -4 128 -9z m-1013 -71 c0 -2 -13 -11 -30 -20 -38 -19 -40 -11 -2 9 31 17 32 18 32 11z m2070 -181 c0 -3 -13 4 -30 16 -16 12 -30 24 -30 26 0 3 14 -4 30 -16 17 -12 30 -24 30 -26z m-2831 -2379 c0 -5 -6 1 -14 15 -8 14 -14 30 -14 35 0 6 6 -1 14 -15 8 -14 14 -29 14 -35z"/>
<path d="M2470 3595 c-13 -14 -21 -25 -18 -25 10 0 51 40 46 45 -2 3 -15 -6 -28 -20z"/>
<path d="M5061 3551 c35 -37 71 -71 79 -75 8 -4 -19 27 -60 68 -41 42 -77 76 -79 76 -2 0 24 -31 60 -69z"/>
<path d="M3617 3312 c1 -8 3 -16 3 -18 0 -2 6 -4 14 -4 8 0 17 -6 19 -12 3 -7 6 -3 6 10 1 15 -5 22 -18 22 -11 0 -21 3 -24 8 -2 4 -2 1 0 -6z"/>
<path d="M5427 1883 c-4 -3 -7 -18 -7 -31 0 -31 12 -22 15 13 3 27 2 29 -8 18z"/>
<path d="M5044 990 c-107 -109 -108 -114 -1 -10 48 46 87 86 87 87 0 8 -13 -4 -86 -77z"/>
<path d="M2450 987 c30 -31 56 -57 59 -57 3 0 -7 13 -22 28 -15 16 -25 31 -22 35 3 4 2 5 -2 2 -4 -3 -20 7 -37 22 -17 15 -6 2 24 -30z"/>
</g>
<g id="layer109" fill="#fefb90" stroke="none">
<path d="M3611 3324 c-1 -6 10 -20 24 -32 24 -21 25 -21 25 -2 0 13 -7 20 -19 20 -11 0 -22 6 -24 13 -3 6 -6 7 -6 1z"/>
<path d="M3016 3111 c-10 -11 -16 -26 -13 -33 3 -9 7 -7 13 7 4 11 12 23 18 27 6 4 8 9 5 13 -3 3 -14 -4 -23 -14z"/>
<path d="M3630 2695 c-8 -2 -37 -7 -63 -10 -40 -5 -52 -12 -65 -36 -10 -16 -25 -32 -34 -35 -9 -3 -20 -14 -23 -25 -4 -10 -15 -19 -26 -19 -11 0 -22 -7 -25 -15 -4 -8 -14 -15 -24 -15 -11 0 -22 -5 -25 -10 -9 -15 -81 -45 -155 -66 -53 -15 -72 -27 -113 -68 -26 -28 -55 -67 -63 -86 -8 -19 -19 -37 -23 -40 -17 -10 -80 -157 -96 -225 -22 -89 -23 -228 -2 -285 3 -8 8 -27 11 -41 16 -72 105 -217 199 -320 9 -10 17 -20 17 -22 0 -10 98 -107 108 -107 7 0 12 -7 12 -16 0 -8 5 -12 10 -9 6 3 10 2 10 -3 0 -6 17 -20 38 -33 65 -39 142 -79 142 -74 0 3 24 -4 53 -16 37 -15 82 -22 160 -25 60 -2 112 -6 117 -9 4 -2 10 -1 14 2 4 4 12 8 19 10 96 22 157 44 218 79 24 14 52 27 62 31 9 3 17 9 17 14 0 5 12 15 28 23 40 21 242 225 242 245 0 4 11 21 24 36 13 15 30 40 38 54 7 14 15 28 18 31 7 7 24 60 51 155 19 70 21 96 16 200 -6 126 -17 169 -69 270 -34 66 -125 185 -141 185 -4 0 -30 11 -59 24 -29 13 -81 36 -115 51 -34 15 -70 36 -79 46 -9 11 -26 19 -37 19 -11 0 -17 3 -14 7 9 8 -22 43 -38 43 -7 0 -16 11 -19 25 -6 25 -36 47 -71 53 -36 5 -230 11 -245 7z"/>
<path d="M2240 2480 c0 -5 7 -10 15 -10 8 0 15 5 15 10 0 6 -7 10 -15 10 -8 0 -15 -4 -15 -10z"/>
</g>
<g id="layer110" fill="#fefec3" stroke="none">
<path d="M3660 2659 c-131 -15 -142 -17 -176 -35 -19 -10 -37 -27 -40 -36 -3 -10 -14 -18 -25 -18 -11 0 -22 -7 -25 -15 -4 -8 -14 -15 -24 -15 -11 0 -22 -5 -25 -10 -8 -13 -78 -45 -128 -58 -21 -6 -54 -28 -76 -51 -47 -49 -141 -187 -141 -207 0 -8 -4 -14 -9 -14 -5 0 -11 -10 -14 -22 -3 -13 -15 -48 -27 -78 -31 -78 -33 -256 -5 -352 11 -38 23 -68 27 -68 5 0 8 -9 8 -19 0 -11 5 -23 10 -26 6 -4 21 -27 35 -53 13 -26 43 -68 67 -94 24 -26 57 -64 73 -84 54 -66 138 -142 169 -153 6 -2 22 -12 36 -21 69 -48 259 -87 361 -76 158 18 219 36 309 89 112 65 132 81 215 167 166 173 243 353 232 550 -8 152 -39 237 -134 367 -64 88 -97 115 -197 158 -43 19 -89 43 -101 55 -11 11 -30 20 -40 20 -10 0 -15 3 -12 7 9 8 -22 43 -38 43 -7 0 -15 6 -18 14 -4 9 -37 18 -94 26 -48 6 -95 13 -103 14 -8 2 -49 -1 -90 -5z"/>
</g>
<g id="layer111" fill="#fefefd" stroke="none">
<path d="M5872 5304 l3 -89 40 -1 c83 -3 92 -4 109 -17 16 -11 7 -13 -60 -13 -176 0 -291 -107 -302 -279 -7 -108 17 -175 88 -246 98 -99 226 -117 347 -49 l57 32 22 -27 c16 -20 28 -26 50 -23 l29 3 0 285 c0 282 0 285 -25 335 -54 109 -141 164 -276 173 l-85 5 3 -89z m139 -309 c96 -50 88 -189 -14 -238 -96 -48 -193 61 -152 170 28 74 99 102 166 68z"/>
<path d="M2021 5179 c-91 -18 -171 -98 -191 -192 -7 -31 -10 -122 -8 -222 l3 -170 83 -3 82 -3 0 166 c0 176 9 223 48 244 35 19 77 13 103 -15 23 -25 24 -32 29 -207 l5 -182 85 0 85 0 0 290 0 290 -26 3 c-20 2 -32 -4 -48 -27 l-22 -30 -35 24 c-29 20 -119 48 -142 44 -4 -1 -27 -5 -51 -10z"/>
<path d="M2651 5180 c-93 -19 -185 -100 -215 -188 -22 -64 -20 -160 4 -226 78 -207 337 -263 485 -105 l48 51 -59 59 c-32 32 -63 59 -69 59 -5 0 -22 -15 -37 -34 -15 -19 -43 -39 -62 -46 -92 -30 -183 87 -142 183 18 45 68 77 119 77 32 0 46 -7 79 -40 23 -22 44 -40 47 -40 4 0 33 27 66 60 l59 60 -43 44 c-71 73 -180 106 -280 86z"/>
<path d="M3231 5180 c-129 -27 -220 -137 -229 -276 -9 -134 43 -239 148 -298 50 -28 63 -31 145 -31 97 0 137 14 204 71 66 55 77 33 -157 312 -39 46 -42 52 -23 52 12 0 42 -19 67 -42 l45 -42 62 62 61 62 -43 44 c-72 73 -180 106 -280 86z m73 -438 c-8 -11 -77 23 -97 48 -25 29 -43 92 -32 111 4 5 35 -28 70 -73 34 -46 61 -85 59 -86z"/>
<path d="M4591 5179 c-91 -18 -171 -98 -191 -192 -7 -31 -10 -122 -8 -222 l3 -170 83 -3 82 -3 0 166 c0 176 9 223 48 244 35 19 77 13 103 -15 23 -25 24 -32 29 -207 l5 -182 85 0 85 0 0 290 0 290 -26 3 c-20 2 -32 -4 -48 -27 l-22 -30 -35 24 c-29 20 -119 48 -142 44 -4 -1 -27 -5 -51 -10z"/>
<path d="M5223 5180 c-85 -17 -159 -74 -201 -154 -23 -45 -27 -63 -27 -146 0 -111 19 -162 86 -229 71 -71 209 -102 294 -67 l34 15 3 -112 3 -112 85 0 85 0 0 400 0 400 -30 3 c-25 2 -34 -4 -52 -33 l-23 -35 -46 30 c-25 16 -68 34 -95 39 -56 12 -57 12 -116 1z m123 -189 c35 -21 64 -75 64 -119 0 -40 -38 -93 -83 -115 -31 -16 -42 -17 -72 -7 -74 24 -109 104 -79 179 29 74 105 102 170 62z"/>
<path d="M6561 5180 c-129 -27 -220 -137 -229 -276 -9 -134 43 -239 148 -298 50 -28 63 -31 145 -31 97 0 137 14 204 71 66 55 77 33 -157 312 -39 46 -42 52 -23 52 12 0 42 -19 67 -42 l45 -42 62 62 61 62 -43 44 c-72 73 -180 106 -280 86z m73 -438 c-8 -11 -77 23 -97 48 -25 29 -43 92 -32 111 4 5 35 -28 70 -73 34 -46 61 -85 59 -86z"/>
<path d="M655 5168 c-3 -7 -4 -182 -3 -388 l3 -375 225 0 c200 0 229 2 260 19 133 70 178 225 98 338 -18 26 -18 27 6 63 75 110 21 274 -109 332 -33 15 -76 18 -257 21 -175 3 -219 1 -223 -10z m426 -197 c24 -30 24 -46 -1 -71 -18 -18 -33 -20 -135 -20 l-115 0 0 61 0 61 116 -4 c108 -3 117 -5 135 -27z m-4 -293 c29 -27 29 -43 -2 -73 -23 -24 -31 -25 -135 -25 l-110 0 0 60 0 60 112 0 c101 0 114 -2 135 -22z"/>
<path d="M1377 5174 c-4 -4 -7 -137 -7 -296 l0 -288 29 0 c20 0 35 8 48 26 l19 26 45 -23 c36 -19 64 -24 152 -27 l107 -4 0 85 0 85 -85 3 c-77 4 -87 7 -112 32 l-28 27 -5 178 -5 177 -75 3 c-42 1 -79 0 -83 -4z"/>
<path d="M3920 5171 l-35 -6 0 -90 0 -90 30 2 c78 5 94 4 122 -10 65 -34 67 -46 73 -322 l5 -250 85 0 85 0 0 265 c0 264 0 265 -26 320 -37 79 -72 115 -142 149 -65 31 -138 43 -197 32z"/>
<path d="M3603 4253 c9 -2 25 -2 35 0 9 3 1 5 -18 5 -19 0 -27 -2 -17 -5z"/>
<path d="M3945 4249 c3 -4 -91 -7 -214 -6 -120 1 -214 -2 -208 -6 7 -5 -7 -6 -31 -4 -27 3 -40 2 -36 -5 5 -7 -4 -9 -25 -6 -17 2 -31 0 -31 -5 0 -5 -9 -7 -20 -4 -11 3 -23 1 -26 -5 -4 -6 -22 -8 -43 -4 -21 3 -30 2 -23 -3 17 -11 -41 -23 -65 -14 -11 5 -14 3 -8 -6 6 -10 2 -11 -15 -6 -17 5 -21 4 -15 -6 6 -9 2 -11 -13 -7 -12 4 -20 3 -17 -1 2 -5 -14 -14 -36 -20 -23 -7 -48 -15 -58 -18 -14 -4 -14 -3 -1 6 8 6 11 11 5 11 -14 0 -43 -20 -30 -20 6 0 2 -5 -8 -11 -9 -5 -22 -7 -29 -3 -7 4 -8 3 -4 -4 7 -11 -7 -16 -41 -15 -7 1 -11 -3 -8 -7 3 -4 -2 -11 -11 -14 -24 -9 -31 -7 -14 4 10 7 11 10 2 10 -7 0 -15 -7 -18 -15 -4 -8 -10 -13 -14 -10 -12 7 -41 -6 -35 -16 3 -4 -17 -20 -46 -34 -28 -15 -48 -21 -44 -14 5 7 -10 2 -33 -11 -23 -13 -39 -27 -36 -31 2 -4 0 -10 -6 -14 -5 -3 -10 0 -10 7 -1 7 -15 -3 -32 -22 -17 -19 -28 -29 -24 -23 5 9 2 11 -8 7 -9 -3 -14 -10 -11 -14 6 -9 -60 -61 -81 -64 -8 -1 -20 -8 -27 -16 -10 -11 -8 -11 8 0 20 15 20 14 1 -8 -12 -13 -22 -18 -26 -12 -4 6 -16 -1 -31 -17 l-24 -28 25 20 c16 12 13 6 -9 -17 -19 -20 -37 -37 -40 -36 -18 2 -31 -3 -31 -13 0 -5 5 -7 10 -4 19 12 10 -1 -22 -31 -17 -16 -28 -23 -24 -16 4 6 3 12 -3 12 -6 0 -15 -10 -22 -21 -9 -17 -8 -20 3 -14 7 5 -3 -8 -21 -28 -37 -39 -54 -50 -30 -19 8 10 -3 0 -23 -22 -20 -22 -35 -43 -32 -47 2 -4 -4 -15 -14 -26 -9 -10 -15 -14 -12 -8 8 18 -40 -38 -51 -60 -6 -11 1 -6 16 10 l27 30 -21 -32 c-12 -17 -31 -35 -42 -38 -14 -5 -19 -13 -16 -26 3 -10 0 -22 -5 -26 -7 -3 -8 -1 -4 5 4 7 5 12 2 12 -5 0 -66 -98 -66 -107 0 -4 7 2 16 13 15 18 15 18 5 -2 -6 -12 -18 -24 -27 -28 -9 -3 -14 -13 -10 -21 3 -8 0 -14 -7 -12 -7 1 -12 -8 -11 -20 0 -12 -3 -20 -6 -18 -10 6 -32 -44 -25 -56 4 -5 1 -17 -5 -26 -10 -16 -11 -16 -5 2 11 36 -11 2 -30 -45 -27 -71 -29 -78 -15 -60 11 13 11 13 7 0 -32 -104 -41 -128 -48 -125 -11 8 -19 -24 -13 -53 4 -22 3 -24 -6 -12 -9 12 -10 7 -5 -20 5 -26 4 -31 -4 -20 -9 13 -11 13 -11 -2 0 -9 -3 -25 -6 -35 -5 -15 -4 -16 5 -3 9 12 10 6 5 -25 -4 -22 -13 -46 -21 -53 -15 -16 -17 -26 -3 -17 6 3 10 -3 10 -14 0 -11 -4 -22 -8 -25 -5 -3 -7 -19 -4 -37 3 -20 1 -30 -6 -26 -5 4 -12 -4 -14 -18 -3 -13 -1 -22 3 -19 5 3 8 -16 8 -43 -1 -43 -2 -45 -9 -18 -4 18 -8 -32 -8 -120 1 -90 4 -136 8 -115 7 31 8 29 9 -22 0 -34 -3 -58 -10 -60 -8 -3 -5 -10 6 -21 13 -13 15 -26 11 -52 -5 -24 -3 -35 5 -35 8 0 9 -10 5 -30 -3 -19 -2 -29 4 -25 6 3 10 -1 10 -10 0 -10 -5 -13 -12 -9 -7 4 -5 -2 6 -14 12 -14 19 -37 19 -71 0 -30 5 -47 11 -44 5 4 7 -1 2 -12 -8 -21 10 -85 28 -100 7 -5 18 -25 24 -44 14 -41 15 -51 2 -31 -5 8 -10 11 -10 5 0 -14 20 -43 20 -30 1 13 29 -36 29 -50 0 -5 -6 1 -14 15 -19 33 -19 21 0 -24 16 -37 29 -50 19 -19 -5 17 -5 17 6 0 6 -9 8 -21 5 -27 -6 -9 50 -130 60 -130 3 0 1 9 -5 20 -6 11 -8 20 -6 20 3 0 15 -18 27 -41 11 -23 15 -38 9 -34 -14 9 11 -41 35 -70 9 -11 14 -14 10 -7 -14 27 4 9 30 -31 19 -28 22 -37 10 -27 -11 9 -5 -5 13 -32 18 -26 38 -50 44 -54 6 -4 -1 10 -16 32 l-28 39 30 -35 c17 -19 30 -39 28 -45 -3 -11 34 -59 49 -63 20 -6 73 -65 69 -76 -3 -7 8 -23 23 -36 l28 -25 -20 24 -20 25 26 -20 c15 -10 25 -23 22 -27 -3 -4 1 -15 8 -23 8 -10 15 -11 19 -5 3 7 21 -5 41 -27 l34 -37 -35 30 -35 30 29 -32 c15 -17 34 -29 40 -27 7 3 23 -8 36 -23 l25 -28 -30 25 -30 25 24 -27 c13 -15 29 -24 35 -22 7 3 19 -3 27 -13 13 -17 13 -17 -6 -3 -18 14 -19 14 -7 -2 8 -9 19 -15 26 -12 7 3 19 -3 27 -13 13 -17 13 -17 -6 -3 -19 14 -19 14 -6 -3 8 -10 19 -16 26 -13 6 2 22 -5 36 -16 l24 -19 -25 11 c-23 10 -24 10 -7 -4 11 -8 24 -13 31 -10 7 3 29 -11 50 -31 38 -35 53 -44 40 -24 -4 7 7 4 24 -6 17 -10 29 -22 27 -26 -3 -4 2 -10 11 -13 9 -3 12 -2 9 4 -4 6 9 3 29 -6 19 -10 33 -21 31 -25 -6 -9 24 -21 35 -14 11 7 61 -16 55 -25 -3 -5 2 -11 11 -14 10 -4 13 -2 8 6 -5 8 -2 9 10 5 10 -4 20 -7 22 -7 3 0 2 -5 -2 -12 -5 -8 -2 -9 9 -5 10 3 17 2 17 -4 0 -6 5 -7 10 -4 15 9 51 -5 44 -17 -5 -7 -2 -8 5 -3 19 11 106 -15 89 -27 -9 -7 -4 -8 15 -4 16 4 27 2 27 -4 0 -7 8 -9 21 -5 14 5 19 3 15 -4 -5 -7 4 -9 26 -5 24 4 29 3 19 -4 -11 -8 -3 -9 27 -5 24 3 42 2 42 -4 0 -5 14 -8 30 -5 17 2 30 0 30 -5 0 -5 13 -8 29 -5 16 2 31 0 35 -6 3 -5 26 -7 51 -4 30 3 45 1 45 -7 0 -8 41 -11 135 -11 94 0 135 3 135 11 0 8 14 10 40 6 22 -3 43 -1 46 5 4 6 21 8 40 5 19 -3 34 -1 36 5 2 6 31 11 65 12 35 1 56 5 49 9 -6 5 3 6 22 3 22 -4 31 -2 26 5 -4 7 1 9 15 4 12 -4 21 -2 21 4 0 6 5 11 11 11 5 0 7 -4 4 -10 -3 -6 1 -7 9 -4 9 3 16 10 16 16 0 5 5 6 10 3 6 -3 10 -2 10 3 0 11 80 33 92 26 4 -3 8 0 8 6 0 7 7 10 15 6 8 -3 25 -1 37 4 14 5 17 9 8 10 -12 0 -11 3 3 11 10 6 25 8 33 5 8 -3 12 -2 9 3 -5 10 23 22 60 26 35 4 36 5 31 14 -7 11 22 23 36 14 7 -4 8 -1 3 7 -6 10 -4 12 9 7 11 -5 15 -3 10 5 -5 8 -2 9 10 5 10 -4 15 -3 11 3 -6 10 7 14 32 11 6 -1 15 4 19 10 4 8 3 9 -4 5 -7 -4 -12 -5 -12 -2 0 3 10 10 21 17 16 8 20 8 14 -1 -6 -9 -2 -9 14 -1 11 7 21 14 21 17 0 3 -5 2 -12 -2 -7 -5 -8 -3 -4 5 5 7 15 10 23 7 8 -3 11 -2 8 4 -3 5 5 14 17 21 22 12 22 11 8 -6 -14 -17 -14 -17 7 -7 12 7 25 17 29 24 5 7 3 8 -6 3 -8 -5 -11 -4 -6 3 4 6 13 9 20 6 8 -3 17 0 22 7 5 8 3 10 -7 4 -12 -7 -12 -6 -1 7 8 9 19 15 25 13 7 -3 28 10 48 28 19 17 26 25 15 17 -17 -12 -16 -9 4 13 13 15 29 26 36 23 7 -2 22 7 35 22 l24 27 -30 -25 -30 -25 29 33 c29 32 54 44 40 20 -4 -7 21 14 54 46 34 33 59 63 56 68 -3 4 12 25 33 46 21 21 29 27 18 13 l-20 -26 27 24 c15 13 25 28 22 33 -8 13 26 49 39 41 6 -4 8 0 4 10 -3 9 1 21 11 29 15 12 16 11 3 -5 -7 -9 -9 -17 -3 -17 12 0 24 28 17 40 -3 4 3 14 12 21 14 12 16 12 8 0 -5 -9 -4 -12 3 -7 6 4 9 13 6 20 -3 8 0 17 7 22 8 5 10 3 5 -7 -4 -8 1 -3 13 11 29 36 66 104 51 95 -9 -6 -10 -3 -1 14 7 11 14 21 17 21 3 0 2 -5 -1 -10 -3 -6 -4 -10 -2 -10 9 0 59 92 53 97 -3 4 -6 2 -6 -3 0 -6 -7 -19 -15 -30 -9 -10 -6 2 7 28 12 26 24 45 28 43 4 -2 14 12 24 31 9 20 12 33 6 29 -13 -8 -13 5 0 25 9 13 10 13 10 0 0 -8 9 5 21 29 11 25 17 51 15 58 -3 7 -1 23 4 35 5 14 9 17 10 8 3 -35 41 101 45 158 2 43 9 70 21 84 11 12 13 18 7 14 -8 -4 -13 -2 -13 7 0 8 7 17 15 21 8 3 15 10 15 16 0 6 -4 8 -10 5 -5 -3 -10 3 -10 15 0 12 4 19 9 15 6 -3 7 9 4 31 -4 27 -3 35 6 30 8 -6 10 8 6 51 -3 32 -2 50 2 41 5 -10 8 61 8 157 0 96 -3 167 -7 157 -4 -11 -7 -3 -7 21 -1 20 3 37 9 37 5 0 7 7 4 15 -4 8 -11 12 -17 8 -7 -4 -8 8 -4 35 3 23 1 42 -4 42 -5 0 -9 10 -9 23 0 18 2 19 10 7 6 -9 10 -10 10 -3 0 7 -6 16 -13 20 -14 8 -41 122 -32 131 3 3 5 -3 5 -13 0 -10 2 -16 5 -13 10 10 -7 58 -18 51 -7 -4 -8 0 -4 11 8 21 -2 68 -13 61 -12 -8 -22 29 -14 50 6 14 4 16 -6 10 -10 -6 -12 -3 -8 13 4 14 2 20 -5 15 -6 -4 -8 0 -4 10 7 17 -19 103 -34 113 -5 3 -6 -3 -3 -13 3 -10 -4 -2 -15 17 -20 35 -29 68 -11 40 5 -8 10 -11 10 -7 0 11 -49 107 -55 107 -3 0 1 -13 10 -30 9 -16 13 -30 10 -30 -2 0 -14 18 -26 41 -11 23 -15 38 -9 34 9 -6 9 -2 1 14 -7 11 -14 21 -17 21 -3 0 -2 -4 1 -10 3 -5 4 -10 1 -10 -3 0 -10 10 -17 21 -7 15 -8 19 0 15 7 -4 9 -1 5 8 -3 9 -11 14 -17 13 -7 -1 -12 5 -13 13 -1 26 -15 60 -25 60 -5 0 -2 -12 8 -27 25 -42 1 -15 -41 45 -20 29 -34 57 -31 62 3 5 0 12 -6 16 -8 5 -9 3 -4 -7 8 -12 6 -12 -8 0 -10 8 -16 19 -14 25 6 15 -52 88 -64 80 -5 -3 -8 -1 -7 4 5 15 -121 142 -135 136 -7 -2 -26 10 -42 28 -17 18 -21 26 -10 18 20 -15 20 -14 1 8 -12 14 -22 18 -26 12 -4 -6 -14 -2 -26 12 -19 22 -19 23 1 8 18 -14 19 -14 7 2 -8 9 -19 15 -25 13 -7 -3 -25 7 -42 22 l-30 26 30 -18 c28 -17 29 -17 13 0 -9 10 -27 18 -40 19 -15 1 -22 7 -20 16 2 8 0 12 -4 8 -4 -4 -13 0 -21 10 -10 11 -12 12 -8 2 4 -8 -1 -6 -10 5 -9 11 -19 20 -23 20 -4 0 -6 3 -5 7 1 3 -4 9 -13 12 -9 4 -12 2 -8 -5 3 -6 -8 -3 -25 5 -17 9 -31 19 -31 22 0 3 5 2 10 -1 6 -3 10 -4 10 -1 0 3 -10 10 -21 17 -16 8 -20 8 -14 -1 4 -6 -16 0 -44 15 -29 14 -50 29 -47 34 6 9 -64 45 -72 36 -3 -3 1 -5 8 -5 7 0 11 -2 8 -5 -8 -9 -58 17 -52 26 3 5 -2 6 -10 3 -8 -3 -23 -1 -33 5 -14 8 -15 11 -3 11 9 1 6 5 -8 10 -12 5 -30 6 -39 3 -10 -4 -14 -2 -10 4 5 7 -1 9 -15 5 -11 -3 -19 -1 -16 4 4 5 -8 10 -25 10 -17 1 -33 6 -35 12 -2 6 -10 8 -18 5 -8 -3 -14 0 -14 6 0 6 -7 8 -17 4 -11 -4 -14 -3 -9 5 5 8 -2 10 -25 5 -25 -5 -30 -3 -24 7 5 9 4 11 -3 6 -15 -9 -133 14 -127 24 3 4 -4 10 -15 13 -11 3 -18 1 -14 -4 3 -5 -2 -9 -10 -9 -9 0 -16 4 -16 9 0 6 -16 7 -37 4 -24 -4 -34 -3 -30 4 4 6 -2 13 -13 16 -11 3 -18 1 -15 -4z m-71 -140 c-5 -8 8 -9 42 -5 64 9 223 -19 239 -41 9 -11 20 -14 39 -9 19 5 26 3 21 -4 -5 -7 2 -9 21 -4 21 5 25 4 19 -6 -5 -9 -4 -11 4 -6 15 10 64 -2 56 -13 -2 -5 2 -12 11 -15 10 -4 13 -2 8 6 -5 8 -2 9 10 5 10 -4 23 -7 29 -7 7 0 6 -5 -3 -11 -12 -9 -10 -10 8 -6 25 6 122 -30 122 -45 0 -5 4 -7 9 -4 5 3 11 -1 15 -9 3 -8 11 -15 18 -15 9 0 8 3 -2 10 -8 5 -11 10 -7 10 11 0 87 -39 87 -46 0 -2 -10 0 -22 6 -21 10 -21 9 2 -9 27 -22 45 -28 34 -10 -3 6 8 3 25 -5 17 -9 31 -19 31 -22 0 -3 -4 -2 -10 1 -5 3 -10 4 -10 1 0 -3 10 -10 21 -17 17 -9 20 -8 14 1 -11 17 73 -30 88 -50 11 -13 10 -13 -8 0 -19 14 -19 14 -6 -3 8 -10 20 -16 27 -13 7 3 16 0 20 -6 4 -7 3 -8 -4 -4 -27 16 -10 -4 21 -25 l32 -23 -20 24 -20 24 32 -23 c18 -12 36 -27 40 -34 4 -7 -2 -5 -13 3 -18 14 -18 14 -5 -2 7 -10 17 -15 22 -12 14 8 69 -42 59 -52 -5 -5 4 -17 23 -27 l32 -19 -20 24 c-11 12 4 1 32 -26 29 -27 49 -54 46 -60 -3 -6 -2 -8 2 -3 11 10 75 -52 69 -67 -3 -7 8 -23 23 -36 l28 -25 -25 29 c-14 16 -20 26 -13 22 6 -3 26 -25 44 -49 25 -32 27 -37 9 -22 l-24 20 23 -32 c12 -18 27 -36 34 -40 7 -4 7 0 -2 10 -7 9 -11 17 -8 17 3 0 16 -15 28 -32 19 -27 19 -30 4 -18 -13 10 -10 2 10 -27 26 -40 44 -58 30 -30 -4 6 1 3 9 -8 9 -11 14 -25 12 -32 -3 -7 0 -15 6 -19 7 -4 8 -3 4 4 -4 7 -5 12 -2 12 3 0 10 -10 17 -21 8 -15 8 -19 0 -15 -8 5 -8 0 0 -18 7 -14 16 -23 20 -20 5 3 6 -3 2 -12 -4 -12 -3 -15 5 -10 8 5 10 1 5 -10 -4 -12 -3 -15 5 -10 8 5 10 1 5 -10 -4 -12 -3 -15 5 -10 8 5 10 1 5 -10 -4 -12 -3 -15 5 -10 8 5 10 1 5 -10 -5 -13 -3 -15 7 -9 9 5 11 4 6 -4 -10 -16 3 -53 16 -45 7 4 8 2 4 -5 -10 -15 3 -53 15 -46 5 4 9 4 9 1 0 -2 3 -13 6 -23 5 -15 4 -16 -6 -3 -10 13 -11 12 -6 -3 3 -10 6 -24 6 -30 0 -7 4 -6 10 3 6 9 10 10 10 3 0 -6 3 -19 7 -29 4 -12 3 -15 -5 -10 -8 5 -10 2 -6 -8 3 -9 11 -13 17 -9 6 4 8 -3 3 -21 -5 -20 -3 -26 5 -21 8 5 9 -2 4 -26 -5 -27 -4 -31 5 -19 9 12 10 9 5 -13 -4 -19 -2 -26 5 -22 5 3 10 -1 10 -10 0 -9 -4 -13 -10 -10 -6 3 -7 -1 -4 -9 3 -9 10 -13 15 -10 5 3 9 -5 9 -18 0 -18 -2 -20 -10 -8 -7 10 -10 11 -10 2 0 -7 6 -15 14 -18 46 -18 46 -651 0 -677 -8 -4 -14 -13 -14 -20 0 -7 4 -6 10 3 8 12 10 10 10 -8 0 -14 -4 -21 -11 -16 -8 4 -9 -1 -4 -16 5 -16 4 -20 -5 -15 -9 6 -10 -1 -5 -26 4 -22 3 -29 -3 -21 -7 11 -10 9 -15 -7 -3 -12 -1 -19 4 -15 5 3 9 -2 9 -11 0 -9 -4 -14 -9 -11 -5 4 -7 -4 -3 -16 3 -14 1 -19 -6 -14 -14 8 -35 -55 -26 -79 6 -13 4 -16 -5 -10 -10 6 -11 2 -6 -15 4 -13 3 -20 -2 -17 -5 3 -14 -3 -21 -14 -7 -11 -8 -19 -2 -19 5 0 10 5 10 12 0 6 2 9 5 6 8 -8 -6 -39 -15 -33 -8 5 -33 -45 -25 -53 3 -3 5 1 5 8 0 7 2 11 5 8 8 -7 -16 -58 -25 -53 -4 2 -14 -12 -24 -31 -9 -20 -11 -32 -5 -29 6 4 1 -11 -10 -34 -12 -23 -24 -41 -27 -41 -2 0 1 10 7 23 19 36 -6 6 -30 -38 l-23 -40 22 25 22 25 -18 -30 c-31 -52 -67 -105 -71 -105 -5 0 1 10 29 55 l20 30 -24 -27 c-13 -15 -32 -42 -43 -60 -18 -33 -18 -33 1 -18 18 14 18 14 5 -3 -7 -9 -19 -17 -25 -17 -14 -1 -82 -90 -78 -104 5 -14 -171 -187 -185 -182 -6 3 -17 -3 -25 -12 -12 -16 -11 -16 7 -2 20 15 20 14 1 -8 -15 -17 -22 -19 -28 -10 -6 10 -8 9 -8 -3 0 -9 -10 -24 -22 -35 -12 -10 -18 -13 -14 -7 12 22 -10 14 -30 -9 -19 -22 -19 -23 1 -8 18 14 19 14 7 -2 -8 -9 -19 -15 -27 -12 -7 3 -16 0 -21 -7 -5 -8 -3 -10 7 -5 24 13 -33 -31 -64 -49 -17 -10 -27 -13 -23 -7 5 8 2 10 -8 6 -9 -3 -14 -10 -13 -16 1 -5 -22 -24 -52 -41 -30 -17 -51 -26 -47 -19 6 9 2 10 -18 1 -14 -7 -23 -15 -21 -19 7 -11 -63 -40 -80 -34 -9 4 -17 -1 -21 -10 -4 -11 -13 -15 -26 -10 -13 4 -18 2 -14 -4 8 -13 -29 -26 -45 -16 -8 5 -9 3 -4 -6 6 -10 4 -12 -8 -7 -10 4 -17 2 -17 -4 0 -6 -7 -8 -16 -5 -8 3 -12 2 -9 -4 3 -6 -1 -10 -10 -10 -10 0 -14 5 -10 13 4 6 -1 3 -10 -8 -11 -13 -28 -20 -55 -20 -24 0 -34 -3 -27 -8 7 -5 -2 -6 -21 -3 -23 4 -31 2 -26 -6 5 -7 0 -9 -14 -6 -12 4 -22 2 -22 -4 0 -6 -11 -7 -25 -4 -15 4 -25 2 -25 -5 0 -6 -10 -9 -22 -8 -13 1 -32 -2 -43 -7 -31 -14 -501 -12 -516 3 -6 6 -17 9 -24 6 -8 -2 -26 4 -41 14 -16 10 -25 12 -21 5 5 -7 3 -12 -7 -12 -9 0 -16 4 -16 9 0 5 -10 7 -22 3 -15 -4 -19 -2 -13 7 5 10 2 11 -13 7 -24 -8 -112 12 -112 26 0 5 -4 7 -8 4 -14 -8 -82 16 -75 27 3 6 1 7 -6 3 -16 -10 -53 3 -45 16 4 7 2 8 -5 4 -15 -10 -53 3 -46 15 4 5 0 10 -7 10 -7 1 -20 3 -28 4 -8 1 -21 3 -28 4 -7 0 -11 5 -7 10 3 5 0 13 -6 17 -8 4 -9 3 -5 -4 9 -15 3 -15 -28 -1 -14 7 -23 16 -20 20 3 5 -3 6 -12 2 -13 -5 -15 -3 -9 7 6 9 4 11 -5 5 -7 -5 -20 2 -34 17 -11 13 -16 17 -11 9 9 -12 7 -12 -13 -2 -12 7 -20 16 -17 20 3 5 -2 12 -11 15 -9 4 -13 2 -8 -5 4 -7 0 -7 -15 1 -12 6 -19 15 -16 20 3 6 -1 7 -9 4 -9 -3 -21 5 -32 21 -17 27 -64 60 -48 34 11 -18 -44 22 -92 67 -22 22 -32 33 -22 25 27 -21 22 -8 -9 20 -14 13 -23 18 -19 11 4 -6 3 -12 -1 -12 -15 0 -136 128 -130 137 4 6 -8 23 -26 39 l-32 29 30 -35 30 -35 -33 30 c-18 16 -30 35 -28 41 3 7 -3 18 -12 26 -16 12 -16 11 -2 -7 14 -20 14 -20 -7 -2 -12 11 -19 24 -17 31 3 7 -3 19 -13 27 -17 13 -17 13 -3 -6 14 -18 14 -19 -2 -7 -9 8 -15 19 -12 27 3 7 -1 21 -10 32 -48 59 -54 63 -26 18 21 -34 24 -41 8 -23 -30 36 -64 93 -50 84 8 -5 10 -2 6 8 -3 9 -10 14 -16 13 -10 -2 -108 169 -107 188 0 6 8 -6 19 -25 24 -43 26 -33 3 14 -9 19 -20 33 -24 31 -11 -7 -39 72 -32 91 4 11 2 15 -4 11 -12 -8 -60 120 -49 130 3 4 6 -2 6 -12 0 -10 2 -16 5 -13 4 3 3 18 -1 33 -5 20 -9 24 -16 13 -6 -8 -7 -1 -3 22 5 27 4 31 -5 20 -8 -11 -9 -7 -5 21 5 26 2 40 -10 52 -10 11 -14 25 -10 37 4 12 2 20 -5 20 -6 0 -10 10 -9 23 2 12 0 28 -5 35 -5 8 -11 89 -13 180 -7 197 9 366 35 396 9 11 11 16 5 12 -8 -4 -13 -1 -13 8 0 9 5 16 10 16 6 0 8 11 4 26 -5 20 -4 25 5 20 9 -6 10 0 5 20 -5 18 -3 25 3 21 6 -4 14 0 17 9 3 8 2 12 -4 9 -6 -3 -10 1 -10 10 0 10 5 13 12 9 8 -5 9 -2 5 10 -4 10 -4 29 -1 43 5 19 9 22 16 11 7 -9 8 -6 5 10 -7 30 12 84 26 75 6 -4 8 0 4 10 -8 22 2 49 15 41 6 -4 7 2 3 16 -4 14 -3 20 3 16 12 -7 23 19 16 38 -3 8 0 17 7 22 8 5 10 3 5 -7 -4 -8 0 -5 8 6 9 11 14 25 11 33 -2 7 -1 11 4 8 9 -6 35 44 26 52 -3 3 -5 -1 -5 -8 0 -7 -3 -10 -7 -6 -4 4 3 16 17 28 14 11 19 17 12 13 -10 -5 -9 1 2 24 9 17 19 31 22 31 2 0 -1 -10 -7 -22 -19 -36 -6 -20 65 84 36 54 65 102 64 107 -3 10 112 148 171 206 23 21 41 34 41 27 0 -6 7 -9 16 -5 10 4 12 8 5 12 -7 5 0 18 18 35 16 16 34 25 39 22 5 -3 16 2 23 12 13 16 12 16 -6 2 -20 -15 -20 -15 -1 8 11 12 25 21 31 18 7 -2 25 7 41 21 16 13 23 21 15 17 -9 -4 -12 -3 -7 4 4 6 13 9 20 6 7 -3 19 3 27 13 13 17 13 17 -6 3 -18 -13 -19 -13 -8 0 6 8 26 23 45 33 l33 19 -25 -22 -25 -22 32 18 c18 10 30 21 27 25 -2 4 33 28 78 53 83 45 139 69 108 47 -8 -6 -10 -11 -5 -11 6 0 19 9 28 21 10 11 25 18 33 15 9 -3 12 -1 9 4 -3 6 -1 10 4 10 6 0 11 -5 11 -11 0 -5 5 -7 10 -4 6 4 7 11 4 17 -5 7 -1 9 9 5 10 -4 17 -2 17 4 0 6 7 8 16 5 10 -4 13 -2 8 6 -5 8 -2 9 9 5 10 -3 17 -3 17 2 0 13 73 31 99 24 18 -5 22 -3 16 6 -6 10 -2 11 15 6 16 -5 20 -4 15 5 -5 9 -2 10 14 5 11 -3 21 -2 21 3 0 14 124 36 157 28 22 -5 25 -4 13 4 -11 9 1 10 48 5 44 -4 62 -3 57 4 -4 8 37 11 130 11 97 0 134 -3 129 -11z m1296 -454 c30 -30 52 -55 49 -55 -2 0 -29 25 -59 55 -30 30 -52 55 -49 55 2 0 29 -25 59 -55z m-2900 -295 c-12 -16 -24 -30 -26 -30 -3 0 4 14 16 30 12 17 24 30 26 30 3 0 -4 -13 -16 -30z m-56 -80 c-15 -22 -29 -40 -31 -40 -5 0 3 15 29 53 30 43 31 32 2 -13z m3217 -2037 c-5 -10 -17 -27 -26 -38 -16 -19 -17 -19 -3 5 26 46 29 50 34 50 3 0 0 -8 -5 -17z m-3182 -236 c-2 -3 -15 10 -28 27 l-24 31 28 -27 c16 -15 27 -29 24 -31z m2941 -80 c0 -1 -24 -25 -52 -52 l-53 -50 50 53 c46 48 55 57 55 49z"/>
<path d="M2452 3577 c-23 -24 -42 -47 -42 -52 0 -5 21 12 46 39 56 60 53 71 -4 13z"/>
<path d="M5112 3500 c7 -11 19 -22 28 -25 8 -4 4 5 -9 19 -29 31 -36 33 -19 6z"/>
<path d="M2364 3477 l-29 -32 30 25 c17 14 32 26 34 28 2 1 2 4 -1 7 -2 3 -18 -10 -34 -28z"/>
<path d="M3643 2582 c-24 -2 -43 -7 -43 -12 0 -5 -6 -7 -14 -4 -8 3 -17 0 -21 -6 -5 -8 -10 -8 -20 0 -9 8 -15 8 -20 0 -3 -5 -17 -10 -31 -10 -14 0 -41 -8 -62 -19 -20 -10 -49 -21 -64 -25 -18 -4 -25 -11 -22 -20 4 -11 -5 -17 -33 -22 -29 -5 -54 -22 -103 -72 -43 -42 -64 -71 -62 -84 2 -10 -1 -17 -6 -16 -12 4 -65 -52 -58 -60 4 -3 0 -12 -8 -21 -19 -23 -30 -61 -16 -61 6 0 5 -11 -5 -30 -9 -16 -20 -30 -26 -30 -6 0 -9 -6 -6 -14 3 -8 0 -38 -7 -68 -7 -30 -11 -72 -10 -93 5 -77 23 -177 35 -191 6 -8 8 -14 5 -14 -4 0 -1 -10 6 -22 7 -13 11 -29 10 -35 -4 -17 15 -17 22 0 4 6 4 2 2 -11 -3 -15 0 -22 7 -19 7 2 22 -8 34 -22 13 -14 19 -27 13 -29 -5 -2 -2 -16 8 -30 20 -32 33 -43 44 -36 4 3 8 1 8 -5 0 -6 11 -21 24 -34 14 -14 22 -28 18 -33 -4 -4 -2 -4 5 -1 6 4 25 -7 42 -24 18 -17 38 -29 46 -25 9 3 12 0 9 -8 -3 -7 8 -19 23 -26 28 -14 36 -17 61 -19 6 0 12 -8 12 -16 0 -11 11 -15 40 -15 23 0 40 -5 40 -11 0 -6 9 -9 20 -6 10 3 21 0 23 -7 3 -8 8 -7 19 2 12 9 18 10 23 2 4 -6 13 -9 21 -6 8 3 38 0 68 -6 31 -6 63 -7 73 -2 10 4 23 9 28 10 6 1 12 3 15 4 3 1 21 3 39 6 19 2 37 8 40 13 4 4 20 8 38 8 17 0 39 7 48 16 9 10 28 17 43 17 27 1 58 18 60 33 0 5 4 12 8 15 4 4 4 1 0 -5 -15 -27 18 -12 48 22 18 19 36 35 40 35 14 0 57 50 51 60 -3 5 0 7 8 4 8 -3 18 -1 22 5 3 6 0 11 -7 11 -7 0 -2 9 11 19 13 10 21 23 17 30 -4 6 -2 9 7 5 17 -6 51 42 43 62 -3 7 0 13 6 11 6 -1 15 12 20 28 5 17 12 37 15 45 4 8 5 19 4 24 -1 5 4 13 11 17 7 5 13 14 13 21 1 7 4 33 8 58 12 72 14 199 4 209 -6 6 -12 23 -13 40 -4 34 -74 171 -104 203 -10 12 -17 24 -15 28 3 4 -5 10 -16 13 -12 3 -18 10 -15 16 10 16 -29 49 -55 47 -14 0 -23 4 -21 12 1 6 -2 12 -8 12 -5 0 -10 7 -10 15 0 8 -6 15 -13 15 -8 0 -22 9 -32 20 -10 11 -24 20 -32 20 -7 0 -13 4 -13 8 0 5 -18 15 -40 22 -22 7 -40 16 -40 20 0 4 -14 7 -31 8 -17 0 -36 6 -44 12 -14 12 -193 27 -262 22z"/>
<path d="M5573 2445 c0 -22 2 -30 4 -17 2 12 2 30 0 40 -3 9 -5 -1 -4 -23z"/>
<path d="M1923 2405 c0 -22 2 -30 4 -17 2 12 2 30 0 40 -3 9 -5 -1 -4 -23z"/>
<path d="M1923 2155 c0 -22 2 -30 4 -17 2 12 2 30 0 40 -3 9 -5 -1 -4 -23z"/>
<path d="M2139 1405 c5 -11 17 -29 26 -40 l16 -20 -10 20 c-5 11 -17 29 -26 40 l-16 20 10 -20z"/>
<path d="M5037 987 c-37 -39 -66 -72 -64 -73 2 -2 36 30 77 71 41 41 70 74 65 74 -6 -1 -40 -34 -78 -72z"/>
<path d="M2445 992 c21 -23 41 -42 44 -42 2 0 -3 8 -12 18 -10 10 -15 22 -12 25 3 4 2 5 -2 2 -3 -3 -18 5 -32 17 -14 13 -8 4 14 -20z"/>
<path d="M4650 4036 c0 -3 14 -12 30 -21 17 -9 30 -13 30 -11 0 3 -13 12 -30 21 -16 9 -30 13 -30 11z"/>
</g>


</svg>